/* XPM */
static char *fbbdaf0db56047b0bdf589ebd50b89e7wSqH2GsvN97isRdF[] = {
/* columns rows colors chars-per-pixel */
"32 32 5 1 ",
"  c #5A5A59",
". c #646463",
"X c #676767",
"o c gray43",
"O c gray54",
/* pixels */
"OO.OOOOOOo.OOOOOOO.OOOOOOO.OOOOO",
"oo ooooooo ooooooo ooooooo ooooo",
"oo ooooooo ooooooo ooooooo ooooo",
"XX XXXXXXX XXXXXXX XXXXXXX XXXXX",
"                                ",
"OO OOOOOO OOOOO OOOOO OOOOOOO OO",
"oo oooooo ooooo ooooo ooooooo oo",
"oo  ooooo ooooo ooooo ooooooo oo",
"XX X XXXX XXXXX XXXXX XXXXXXX XX",
"                                ",
"OOOOOO OOOOO OOOOOO OOOOOO OOOO ",
"oooooo ooooo oooooo oooooo oooo ",
"oooooo ooooo   oo o oooooo oooo ",
"XXXXXX XXXXX   XXXX XXXXXX XXXX ",
"                                ",
"OO OOOOOO OOOOOO OOOOOO OOOO OOO",
"oo oooooo oooooo oooooo oooo ooo",
"oo oooooo oooooo oooooo oooo ooo",
"XX XXXXXX XXXXXX XXXXXX XXXX XXX",
"                                ",
"OOOOO OOOOOO OOOOOOO OOOOO OOOO ",
"ooooo oooooo ooooooo ooooo oooo ",
"ooooo oooooo ooooooo ooooo ooo  ",
"XXXXX XXXXXX XXXXXXX XXXXX XX X ",
"                                ",
"OO OOOOOO OOOOOO OOOOOO OOOOO OO",
"oo oooooo oooooo oooooo ooooo oo",
"o  oooooo oooo   oooooo ooooo oo",
"   XXXXXX XXX XX XXXXXX XXXXX XX",
"                                ",
"OOOOOOOOOOOOOOOOOOOOOOOOOOOOOOOO",
"OOOOOOOOOOOOOOOOOOOOOOOOOOOOOOOO"
};
