/* XPM */
static char * npc1_xpm[] = {
"32 32 309 2",
"  	c #0B200D",
". 	c #0A1E0C",
"+ 	c #0C210E",
"@ 	c #0B1F0D",
"# 	c #0B1E0D",
"$ 	c #0A1E0D",
"% 	c #0C200E",
"& 	c #0A1F0C",
"* 	c #0A1D0C",
"= 	c #091D0B",
"- 	c #091C0B",
"; 	c #0D210F",
"> 	c #0C1F0E",
", 	c #0C210F",
"' 	c #091D0C",
") 	c #0E2210",
"! 	c #0D220F",
"~ 	c #0D200E",
"{ 	c #0E2310",
"] 	c #091A0B",
"^ 	c #08170A",
"/ 	c #09190B",
"( 	c #0B1F0E",
"_ 	c #081B0E",
": 	c #053C31",
"< 	c #034A3E",
"[ 	c #053B2F",
"} 	c #091C0D",
"| 	c #091E0C",
"1 	c #061D10",
"2 	c #053F33",
"3 	c #017664",
"4 	c #008B77",
"5 	c #017362",
"6 	c #043C31",
"7 	c #081E10",
"8 	c #0C1809",
"9 	c #16281C",
"0 	c #0A6858",
"a 	c #009E89",
"b 	c #00B19A",
"c 	c #009C87",
"d 	c #0B6555",
"e 	c #16251A",
"f 	c #0C1909",
"g 	c #0B1D0C",
"h 	c #0B1E0C",
"i 	c #0C1E0D",
"j 	c #0C190C",
"k 	c #080E09",
"l 	c #1B190C",
"m 	c #403B21",
"n 	c #266C58",
"o 	c #00AF98",
"p 	c #009A85",
"q 	c #296956",
"r 	c #40391E",
"s 	c #19180C",
"t 	c #04120C",
"u 	c #081B0C",
"v 	c #0D200F",
"w 	c #0F2010",
"x 	c #383A36",
"y 	c #463B39",
"z 	c #371614",
"A 	c #261414",
"B 	c #302F1D",
"C 	c #68511F",
"D 	c #465D46",
"E 	c #2D7D6C",
"F 	c #378D7A",
"G 	c #2C7C6B",
"H 	c #4A5C44",
"I 	c #67501F",
"J 	c #293223",
"K 	c #012721",
"L 	c #041A13",
"M 	c #091A0C",
"N 	c #0E210F",
"O 	c #23261F",
"P 	c #989595",
"Q 	c #B9A0A0",
"R 	c #8D312F",
"S 	c #5D191A",
"T 	c #382419",
"U 	c #564424",
"V 	c #646357",
"W 	c #8C9184",
"X 	c #A0A594",
"Y 	c #8A8F82",
"Z 	c #636154",
"` 	c #53492B",
" .	c #1E4436",
"..	c #00342C",
"+.	c #012922",
"@.	c #051B14",
"#.	c #0A1B0C",
"$.	c #251E19",
"%.	c #987878",
"&.	c #D48583",
"*.	c #CC3731",
"=.	c #90201C",
"-.	c #411C18",
";.	c #3D4C3F",
">.	c #8E8B7F",
",.	c #958D7E",
"'.	c #898070",
").	c #968E80",
"!.	c #8C897C",
"~.	c #375143",
"{.	c #054C40",
"].	c #00473C",
"^.	c #004338",
"/.	c #032822",
"(.	c #071407",
"_.	c #221810",
":.	c #6D1715",
"<.	c #B22620",
"[.	c #C42C25",
"}.	c #8C1F1C",
"|.	c #3E2823",
"1.	c #306254",
"2.	c #888C7F",
"3.	c #978F81",
"4.	c #918878",
"5.	c #989081",
"6.	c #858A7E",
"7.	c #2A6A5A",
"8.	c #006656",
"9.	c #006555",
"0.	c #005548",
"a.	c #032F27",
"b.	c #081609",
"c.	c #0D1F0E",
"d.	c #1A1A0E",
"e.	c #441916",
"f.	c #8E4221",
"g.	c #A55125",
"h.	c #5F3227",
"i.	c #27594C",
"j.	c #188A77",
"k.	c #509283",
"l.	c #85A997",
"m.	c #99B6A3",
"n.	c #83A796",
"o.	c #4D9282",
"p.	c #128E7A",
"q.	c #007B68",
"r.	c #006B5A",
"s.	c #005043",
"t.	c #032821",
"u.	c #081608",
"v.	c #0E200E",
"w.	c #201E11",
"x.	c #8E5F24",
"y.	c #B0762C",
"z.	c #48422D",
"A.	c #056B5B",
"B.	c #019480",
"C.	c #0F9D89",
"D.	c #219E8A",
"E.	c #289E8A",
"F.	c #209E8A",
"G.	c #0E9D89",
"H.	c #01937F",
"I.	c #006E5D",
"J.	c #004E42",
"K.	c #01322A",
"L.	c #09180A",
"M.	c #1C1C0F",
"N.	c #8C5C22",
"O.	c #AD722A",
"P.	c #433018",
"Q.	c #2B453F",
"R.	c #617C75",
"S.	c #3F6960",
"T.	c #5E725B",
"U.	c #788165",
"V.	c #5B705A",
"W.	c #416B62",
"X.	c #607B74",
"Y.	c #26443D",
"Z.	c #012A23",
"`.	c #041B15",
" +	c #0A1A0C",
".+	c #0B200E",
"++	c #1A1C0E",
"@+	c #89541F",
"#+	c #B16F29",
"$+	c #68461F",
"%+	c #5C5F5A",
"&+	c #B9B5B3",
"*+	c #95867B",
"=+	c #C39F6F",
"-+	c #EAC18B",
";+	c #BF9C6D",
">+	c #978A80",
",+	c #B8B4B2",
"'+	c #4F5653",
")+	c #02100A",
"!+	c #08190B",
"~+	c #14180A",
"{+	c #9D6931",
"]+	c #E69B4B",
"^+	c #C8904E",
"/+	c #6C775F",
"(+	c #A78673",
"_+	c #D1925C",
":+	c #E9A55B",
"<+	c #F1AE66",
"[+	c #E8A45A",
"}+	c #CF925D",
"|+	c #A48573",
"1+	c #406A5B",
"2+	c #02372D",
"3+	c #081D0F",
"4+	c #151A0B",
"5+	c #A26E35",
"6+	c #ED9E4E",
"7+	c #CC8A4F",
"8+	c #5A7960",
"9+	c #5D7058",
"0+	c #9E7145",
"a+	c #AF713B",
"b+	c #AE703B",
"c+	c #9C7045",
"d+	c #5E7159",
"e+	c #397862",
"f+	c #346956",
"g+	c #1B392D",
"h+	c #091A0A",
"i+	c #0E2110",
"j+	c #0C200F",
"k+	c #171A0C",
"l+	c #905B26",
"m+	c #C27A35",
"n+	c #885730",
"o+	c #335141",
"p+	c #105F50",
"q+	c #446754",
"r+	c #516854",
"s+	c #3F604F",
"t+	c #646649",
"u+	c #BC9359",
"v+	c #BF9358",
"w+	c #6B522F",
"x+	c #08190A",
"y+	c #0C1F0D",
"z+	c #151E0E",
"A+	c #603A13",
"B+	c #774615",
"C+	c #2E210D",
"D+	c #051C16",
"E+	c #01493E",
"F+	c #026152",
"G+	c #036757",
"H+	c #015448",
"I+	c #764D28",
"J+	c #E09248",
"K+	c #EBA04F",
"L+	c #875C2B",
"M+	c #071809",
"N+	c #191F0E",
"O+	c #20200F",
"P+	c #0E1B0B",
"Q+	c #041A14",
"R+	c #003E35",
"S+	c #004D41",
"T+	c #005044",
"U+	c #00443A",
"V+	c #553923",
"W+	c #A86632",
"X+	c #B97B3C",
"Y+	c #6B4A22",
"Z+	c #081909",
"`+	c #0A1C0C",
" @	c #0B120C",
".@	c #1D2D22",
"+@	c #214234",
"@@	c #124438",
"#@	c #014238",
"$@	c #124539",
"%@	c #1F4033",
"&@	c #222B20",
"*@	c #2C1C0E",
"=@	c #31230E",
"-@	c #1C210D",
";@	c #131609",
">@	c #302812",
",@	c #352F17",
"'@	c #202214",
")@	c #041510",
"!@	c #2C2714",
"~@	c #443718",
"{@	c #3D2F13",
"]@	c #151307",
"^@	c #0C1E0C",
"/@	c #17220E",
"(@	c #17200C",
"_@	c #111E0D",
":@	c #071307",
"<@	c #362A0D",
"[@	c #534015",
"}@	c #4A3913",
"|@	c #1C1A09",
"1@	c #1C230D",
"2@	c #2A2A0F",
"3@	c #26280F",
"4@	c #101D0C",
"  . + @ . @ # . . +   $ % & @ * $ * @ @ @ @ % . + =   - % @ .   ",
". % @   = % ; @ % > . , @ + ' , ; % % @ @ # # @ - ; ; % @ @ @ * ",
"% . + #   @   % . % @ . + .   @ @ @ @ @ % * + . % @ % . @ % @ @ ",
"% ; ) ) % % ) ) ; ) ; ) ) ! % % ) ~ ) { % ) ) + ! ; ) ; ! ) @ . ",
"% % * # @ % . . % ' % @   % > % ] ^ / . @ * $ # % % . % * - @ . ",
"@ . ; . .   ( @ # + @ @ > @ % _ : < [ } @ @ > . % . ; = % $ . . ",
"| % %   . @ + % % % # % @ @ 1 2 3 4 5 6 7 . % & * ; % % @ % @ @ ",
"% @ % @ @ # @ @ @ % @ * # 8 9 0 a b c d e f g * @ @ % . @ % @ @ ",
"@ % @ .   % @ % > h i j k l m n c o p q r s t u . % @ > @ # % . ",
"% @ v % , . @ % w x y z A B C D E F G H I J K L M * %   ; ; % - ",
"! v % % # v ; N O P Q R S T U V W X Y Z `  ...+.@.#.) v % % @ . ",
"+ @ > = @ @ * g $.%.&.*.=.-.;.>.,.'.).!.~.{.].^./.(.# @ # ' = + ",
"* ; % @ . @ % i _.:.<.[.}.|.1.2.3.4.5.6.7.8.9.0.a.b.% ; % @ @ . ",
"@   % . + % @ c.d.e.f.g.h.i.j.k.l.m.n.o.p.q.r.s.t.u.@ % @ @ + . ",
"+ % ; ; + * % ; v.w.x.y.z.A.B.C.D.E.F.G.H.I.J.K.L L.v % ; ) @ | ",
"% ; @ @ # ; ; + N M.N.O.P.Q.R.S.T.U.V.W.X.Y.Z.`. +; ; ; @ @ & . ",
"@ .+@ . @   . * > ++@+#+$+%+&+*+=+-+;+>+,+'+)+!+h @ . % @ . . % ",
"+   @ *   % @ % # ~+{+]+^+/+(+_+:+<+[+}+|+1+2+3+@ @ @ @ @ . % @ ",
"@ % ) ; + . % ; % 4+5+6+7+8+9+0+a+b+a+c+d+e+f+g+h+@ i+% ) ) @ = ",
"; j+@ @ # ; % % ; k+l+m+n+o+p+q+r+r+r+s+t+u+v+w+x+; % + @ @ & = ",
"% % % *   . * * y+z+A+B+C+D+E+F+G+G+G+H+I+J+K+L+M+* *   @ * . % ",
". % % @ * % ; @ ; % N+O+P+Q+R+S+T+T+T+U+V+W+X+Y+Z+; ; % % @ @   ",
"  @ % . + @ .   @ % y+y+`+ @.@+@@@#@$@%@&@*@=@-@.+@   @ @ # + . ",
"; + . @ % @ # # % . # @ * ;@>@,@'@)@!@~@{@]@] @ > @ . @ # # . & ",
"@ . ; . .   ( @ # + @ @ @ ^@/@(@_@:@<@[@}@|@`+. % . ; = % $ . . ",
"| % %   . @ + % % % # % @ .+- % ; > 1@2@3@4@@ & * ; % % @ % @ @ ",
"% # % @ + $ @ % . % . . ; @ + . % . @ %   . %   % $ % . @ % @ . ",
"% ; ; ) @ ; ) ) ; ) ) ) ) ; + ; ) ) ! ) + ) ! % ! ! ) ; ; ;   * ",
"+ % . . % @ # * @ . % . % @ > # @ # # * & * # @ > @ * @ * * @ & ",
". @ % @ = @ % @ % % @ % @ @ @ @ % . % # . % @ & # @ ; . % . * & ",
". %   @ & @ %   % @ @ @ % @ . % @ ; @ @   . % . . % @ % @ % @ @ ",
"% @ ; , ; $ @ % @ i+# % ; % @ # % @ % ; % @ ; ; + . % @ % ; % ' "};
