/* XPM */
static char * npc3_xpm[] = {
"32 32 249 2",
"  	c #0B200D",
". 	c #0A1E0C",
"+ 	c #0C210E",
"@ 	c #0B1F0D",
"# 	c #0B1E0D",
"$ 	c #0A1E0D",
"% 	c #0C200E",
"& 	c #0A1F0C",
"* 	c #0A1D0C",
"= 	c #091D0B",
"- 	c #091C0B",
"; 	c #0D210F",
"> 	c #0C1F0E",
", 	c #0C210F",
"' 	c #091D0C",
") 	c #0E2210",
"! 	c #0D220F",
"~ 	c #0F2211",
"{ 	c #0E2310",
"] 	c #0B1F0E",
"^ 	c #091E0C",
"/ 	c #0B200E",
"( 	c #07180A",
"_ 	c #08180B",
": 	c #0A1C0D",
"< 	c #081A0C",
"[ 	c #054034",
"} 	c #025446",
"| 	c #044135",
"1 	c #091C0D",
"2 	c #0A1D0F",
"3 	c #017B6A",
"4 	c #009681",
"5 	c #017D6B",
"6 	c #054336",
"7 	c #091E0F",
"8 	c #0D200F",
"9 	c #0E2110",
"0 	c #09190A",
"a 	c #0A1709",
"b 	c #1F2011",
"c 	c #185F4F",
"d 	c #009C87",
"e 	c #00B49D",
"f 	c #009D88",
"g 	c #176251",
"h 	c #1F2113",
"i 	c #0B180A",
"j 	c #091A0B",
"k 	c #051A13",
"l 	c #0D1C15",
"m 	c #4C3B17",
"n 	c #3F6048",
"o 	c #018D79",
"p 	c #00A38E",
"q 	c #008E7B",
"r 	c #3D614A",
"s 	c #4D3D19",
"t 	c #10150D",
"u 	c #090B04",
"v 	c #121A0E",
"w 	c #141D0F",
"x 	c #0C1F0D",
"y 	c #091B0C",
"z 	c #041913",
"A 	c #012822",
"B 	c #11372D",
"C 	c #5C4C23",
"D 	c #61562F",
"E 	c #4D694D",
"F 	c #4D765A",
"G 	c #4C694E",
"H 	c #605730",
"I 	c #5E4716",
"J 	c #595B59",
"K 	c #847978",
"L 	c #632C2A",
"M 	c #411413",
"N 	c #1D1B0E",
"O 	c #0D1F0E",
"P 	c #06160D",
"Q 	c #013028",
"R 	c #003931",
"S 	c #05473C",
"T 	c #334533",
"U 	c #634D1E",
"V 	c #76571A",
"W 	c #75591D",
"X 	c #76581A",
"Y 	c #644E1E",
"Z 	c #352F19",
"` 	c #877C7C",
" .	c #D1ADAC",
"..	c #B74441",
"+.	c #7C1C1B",
"@.	c #351511",
"#.	c #0D1C0C",
"$.	c #051811",
"%.	c #014339",
"&.	c #005749",
"*.	c #005A4D",
"=.	c #0A594B",
"-.	c #33523F",
";.	c #434D34",
">.	c #34523F",
",.	c #14473B",
"'.	c #66302E",
").	c #B94542",
"!.	c #D3322C",
"~.	c #97221D",
"{.	c #3E1511",
"].	c #0D1D0D",
"^.	c #051710",
"/.	c #014238",
"(.	c #006656",
"_.	c #007562",
":.	c #00806D",
"<.	c #088571",
"[.	c #0F8471",
"}.	c #0E8471",
"|.	c #098572",
"1.	c #0F7261",
"2.	c #413A32",
"3.	c #873727",
"4.	c #AA4224",
"5.	c #6D221C",
"6.	c #2E1711",
"7.	c #0E1E0D",
"8.	c #07160C",
"9.	c #022B24",
"0.	c #004A3F",
"a.	c #006959",
"b.	c #00937F",
"c.	c #00A48E",
"d.	c #02927E",
"e.	c #0D6254",
"f.	c #77613C",
"g.	c #B1752F",
"h.	c #4F3116",
"i.	c #131D0E",
"j.	c #0A1D0D",
"k.	c #05150E",
"l.	c #012923",
"m.	c #003930",
"n.	c #00564A",
"o.	c #006255",
"p.	c #006254",
"q.	c #00574A",
"r.	c #75572D",
"s.	c #B1762D",
"t.	c #4A3215",
"u.	c #0C1E0D",
"v.	c #060F07",
"w.	c #031A15",
"x.	c #072922",
"y.	c #30352A",
"z.	c #493E2D",
"A.	c #51422E",
"B.	c #51412E",
"C.	c #4A3E2D",
"D.	c #31352A",
"E.	c #363424",
"F.	c #895926",
"G.	c #AE6C27",
"H.	c #482E13",
"I.	c #0B1D0C",
"J.	c #08180E",
"K.	c #023B31",
"L.	c #186152",
"M.	c #766149",
"N.	c #AC693D",
"O.	c #BC7441",
"P.	c #AD693D",
"Q.	c #776048",
"R.	c #867C56",
"S.	c #DF984D",
"T.	c #D18C43",
"U.	c #4D3417",
"V.	c #0C200F",
"W.	c #091C0C",
"X.	c #052A21",
"Y.	c #0A6353",
"Z.	c #45735F",
"`.	c #66775D",
" +	c #707B5F",
".+	c #67775E",
"++	c #43725F",
"@+	c #827B5A",
"#+	c #DF914A",
"$+	c #D69147",
"%+	c #4F3617",
"&+	c #0A1E0F",
"*+	c #05372C",
"=+	c #015346",
"-+	c #006D5C",
";+	c #007765",
">+	c #007865",
",+	c #006E5D",
"'+	c #005447",
")+	c #444231",
"!+	c #965C29",
"~+	c #B16E2C",
"{+	c #472E13",
"]+	c #0B1E0C",
"^+	c #07140A",
"/+	c #013D33",
"(+	c #00584A",
"_+	c #005E50",
":+	c #005E4F",
"<+	c #00584B",
"[+	c #013E35",
"}+	c #04110A",
"|+	c #402B0F",
"1+	c #623A13",
"2+	c #29230F",
"3+	c #061309",
"4+	c #042F27",
"5+	c #034E42",
"6+	c #004E42",
"7+	c #024E42",
"8+	c #043028",
"9+	c #05120A",
"0+	c #0F1C0D",
"a+	c #091208",
"b+	c #252415",
"c+	c #303826",
"d+	c #20372A",
"e+	c #023129",
"f+	c #20372B",
"g+	c #323927",
"h+	c #272616",
"i+	c #0A1208",
"j+	c #0B1B0C",
"k+	c #21220E",
"l+	c #2A270F",
"m+	c #1D200C",
"n+	c #060E05",
"o+	c #36280C",
"p+	c #513E15",
"q+	c #423210",
"r+	c #0F1307",
"s+	c #0B1C0C",
"t+	c #2C280E",
"u+	c #413613",
"v+	c #352D0F",
"w+	c #0E1B0B",
"x+	c #0D200E",
"y+	c #0D1F0C",
"z+	c #0D1F0D",
"  . + @ . @ # . . +   $ % & @ * $ * @ @ @ @ % . + =   - % @ .   ",
". % @   = % ; @ % > . , @ + ' , ; % % @ @ # # @ - ; ; % @ @ @ * ",
"% . + #   @   % . % @ . + .   @ @ @ @ @ % * + . % @ % . @ % @ @ ",
"% ; ) ) % % ) ) ; ) ; ) ) ! % % ~ ; ) { % ) ) + ! ; ) ; ! ) @ . ",
"% % * # @ % . . % ' % @   % > % @ % # & @ * $ # % % . % * - @ . ",
"@ . ; . .   ] @ # + @ @ > @ % * @ * > # @ @ > . % . ; = % $ . . ",
"^ % %   . @ + % % % # % @ / ( _ : + @ @ @ $ % & * ; % % @ % @ @ ",
"% @ % @ @ # @ @ @ % @ . + < [ } | 1 @ % @ . % . @ @ % . @ % @ @ ",
"@ % @ .   % @ % > @ % @ 2 | 3 4 5 6 7 # + . @ & @ % @ > @ # % . ",
"% @ 8 % , . @ % @ 9 0 a b c d e f g h i j @ ; + % . %   ; ; % - ",
"! 8 % % # 8 ; ; 8 : k l m n o p q r s t u v w x % ; ) 8 % % @ . ",
"+ @ > = @ @ * * y z A B C D E F G H I J K L M N O . # @ # ' = + ",
"* ; % @ . @ % * P Q R S T U V W X Y Z `  ...+.@.#.% % ; % @ @ . ",
"@   % . + % @ # $.%.&.*.=.-.;.;.;.>.,.'.).!.~.{.].% @ % @ @ + . ",
"+ % ; ; + * % > ^./.(._.:.<.[.}.[.|.1.2.3.4.5.6.7.# ; % ; ) @ ^ ",
"% ; @ @ # ; ; > 8.9.0.a.b.p p p p c.d.e.f.g.h.i.8 ; ; ; @ @ & . ",
"@ / @ . @   . * j.k.l.m.n.o.p.p.p.o.q.R r.s.t.u.@ @ . % @ . . % ",
"+   @ *   % @ % * v.w.x.y.z.A.B.A.C.D.E.F.G.H.I.  @ @ @ @ . % @ ",
"@ % ) ; + . % ; > J.K.L.M.N.O.O.O.P.Q.R.S.T.U.@ @ @ 9 % ) ) @ = ",
"; V.@ @ # ; % % ; W.X.Y.Z.`. + + +.+++@+#+$+%+* % ; % + @ @ & = ",
"% % % *   . * * @ @ &+*+=+-+;+;+>+,+'+)+!+~+{+]+  * *   @ * . % ",
". % % @ * % ; @ ; % # ^+/+(+_+:+_+<+[+}+|+1+2+x ' ; ; % % @ @   ",
"  @ % . + @ .   @ % # 3+4+S 5+6+7+S 8+9+O 0+% @ % @   @ @ # + . ",
"; + . @ % @ # # % . . a+b+c+d+e+f+g+h+i+. * @ @ > @ . @ # # . & ",
"@ . ; . .   ] @ # + @ j+k+l+m+n+o+p+q+r+. @ > . % . ; = % $ . . ",
"^ % %   . @ + % % % # % x % - s+t+u+v+w+# $ % & * ; % % @ % @ @ ",
"% # % @ + $ @ % . % . . ; @ + . x+y+z+%   . %   % $ % . @ % @ . ",
"% ; ; ) @ ; ) ) ; ) ) ) ) ; + ; ) ) ! ) + ) ! % ! ! ) ; ; ;   * ",
"+ % . . % @ # * @ . % . % @ > # @ # # * & * # @ > @ * @ * * @ & ",
". @ % @ = @ % @ % % @ % @ @ @ @ % . % # . % @ & # @ ; . % . * & ",
". %   @ & @ %   % @ @ @ % @ . % @ ; @ @   . % . . % @ % @ % @ @ ",
"% @ ; , ; $ @ % @ 9 # % ; % @ # % @ % ; % @ ; ; + . % @ % ; % ' "};
