/* XPM */
static char * npc4_xpm[] = {
"32 32 291 2",
"  	c #0C200E",
". 	c #0A1E0C",
"+ 	c #0A1E0D",
"@ 	c #0D210F",
"# 	c #0B1F0D",
"$ 	c #0A1D0C",
"% 	c #0C210E",
"& 	c #091D0B",
"* 	c #0B1E0D",
"= 	c #0B200D",
"- 	c #091D0C",
"; 	c #0C1F0E",
"> 	c #0D220F",
", 	c #091C0B",
"' 	c #0C210F",
") 	c #0C200F",
"! 	c #091E0B",
"~ 	c #0E2310",
"{ 	c #0E2210",
"] 	c #0D200F",
"^ 	c #0B1F0E",
"/ 	c #0B200E",
"( 	c #0A1F0C",
"_ 	c #08190A",
": 	c #0A1C0C",
"< 	c #081909",
"[ 	c #0A1F0D",
"} 	c #06251B",
"| 	c #05372E",
"1 	c #054037",
"2 	c #053A30",
"3 	c #05261E",
"4 	c #06140B",
"5 	c #06271D",
"6 	c #025F50",
"7 	c #018D7A",
"8 	c #019E8A",
"9 	c #018C79",
"0 	c #025C4D",
"a 	c #052018",
"b 	c #0A1C0B",
"c 	c #0B1D0C",
"d 	c #0A241A",
"e 	c #035D4E",
"f 	c #00927E",
"g 	c #00AD97",
"h 	c #00A58F",
"i 	c #037C6A",
"j 	c #074337",
"k 	c #091F12",
"l 	c #0C1E0E",
"m 	c #071409",
"n 	c #15170D",
"o 	c #2E3424",
"p 	c #1A6D5B",
"q 	c #028D79",
"r 	c #009581",
"s 	c #00816E",
"t 	c #1E5344",
"u 	c #2B2714",
"v 	c #0F1408",
"w 	c #071509",
"x 	c #0C1E0D",
"y 	c #06190F",
"z 	c #212C28",
"A 	c #585650",
"B 	c #847F71",
"C 	c #647A6C",
"D 	c #2A7666",
"E 	c #036F5E",
"F 	c #035C4E",
"G 	c #424F38",
"H 	c #5A451A",
"I 	c #1D251A",
"J 	c #021E19",
"K 	c #08190E",
"L 	c #091A0A",
"M 	c #061A10",
"N 	c #01201B",
"O 	c #293832",
"P 	c #656158",
"Q 	c #928B7D",
"R 	c #959083",
"S 	c #727C67",
"T 	c #566343",
"U 	c #575736",
"V 	c #62562C",
"W 	c #604E22",
"X 	c #1F3D30",
"Y 	c #002E27",
"Z 	c #021F1A",
"` 	c #06170D",
" .	c #071508",
"..	c #03231D",
"+.	c #003830",
"@.	c #243D34",
"#.	c #585145",
"$.	c #7E7567",
"%.	c #9F9788",
"&.	c #8B795E",
"*.	c #745512",
"=.	c #755515",
"-.	c #654E1D",
";.	c #364431",
">.	c #0B493D",
",.	c #003D33",
"'.	c #00372F",
").	c #031E18",
"!.	c #081709",
"~.	c #081609",
"{.	c #033028",
"].	c #005043",
"^.	c #295C50",
"/.	c #68756B",
"(.	c #979A8B",
"_.	c #7C8378",
":.	c #525C4C",
"<.	c #424B33",
"[.	c #434C33",
"}.	c #36513D",
"|.	c #0E584A",
"1.	c #015A4C",
"2.	c #00584B",
"3.	c #004D41",
"4.	c #032821",
"5.	c #081708",
"6.	c #091609",
"7.	c #032D26",
"8.	c #005749",
"9.	c #0B705F",
"0.	c #297B69",
"a.	c #3F8976",
"b.	c #2E8673",
"c.	c #18816E",
"d.	c #11806C",
"e.	c #0C806D",
"f.	c #017E6B",
"g.	c #007663",
"h.	c #006D5C",
"i.	c #005145",
"j.	c #032620",
"k.	c #0A1A0A",
"l.	c #09180A",
"m.	c #031F19",
"n.	c #003F35",
"o.	c #005B4D",
"p.	c #007A67",
"q.	c #009D88",
"r.	c #00A590",
"s.	c #009A85",
"t.	c #007463",
"u.	c #00574A",
"v.	c #013A31",
"w.	c #041A15",
"x.	c #09190A",
"y.	c #08190D",
"z.	c #02221C",
"A.	c #1C3E33",
"B.	c #385949",
"C.	c #1F7060",
"D.	c #347B6D",
"E.	c #3F7B69",
"F.	c #417864",
"G.	c #3D7764",
"H.	c #387664",
"I.	c #2F6C5B",
"J.	c #0B4B3F",
"K.	c #03362E",
"L.	c #041F19",
"M.	c #06150A",
"N.	c #655840",
"O.	c #B2976F",
"P.	c #6F6959",
"Q.	c #A9A9A6",
"R.	c #CAA687",
"S.	c #CD914B",
"T.	c #C28347",
"U.	c #B5713F",
"V.	c #9C6137",
"W.	c #38291A",
"X.	c #1B2017",
"Y.	c #111B0E",
"Z.	c #121E0D",
"`.	c #554631",
" +	c #957C5A",
".+	c #695645",
"++	c #C49E8D",
"@+	c #E6A276",
"#+	c #E79348",
"$+	c #D68342",
"%+	c #C26D39",
"&+	c #A75D30",
"*+	c #3E210F",
"=+	c #241B0E",
"-+	c #16200F",
";+	c #654620",
">+	c #AC7538",
",+	c #A5743C",
"'+	c #5D6046",
")+	c #8D7351",
"!+	c #A37C54",
"~+	c #A27C55",
"{+	c #936C4A",
"]+	c #7F5137",
"^+	c #7D472C",
"/+	c #6F3A20",
"(+	c #351F10",
"_+	c #0E1C0C",
":+	c #061608",
"<+	c #865629",
"[+	c #E7994C",
"}+	c #E5A256",
"|+	c #728363",
"1+	c #167966",
"2+	c #1F7A66",
"3+	c #1F7966",
"4+	c #1B705E",
"5+	c #135447",
"6+	c #583E2C",
"7+	c #87482A",
"8+	c #3D2010",
"9+	c #081A0A",
"0+	c #091B0B",
"a+	c #6B3E1D",
"b+	c #BC7439",
"c+	c #C48848",
"d+	c #627154",
"e+	c #006757",
"f+	c #006C5B",
"g+	c #006F5E",
"h+	c #3E3225",
"i+	c #63351F",
"j+	c #2B170C",
"k+	c #24210E",
"l+	c #422811",
"m+	c #442E16",
"n+	c #1E291F",
"o+	c #013029",
"p+	c #01493E",
"q+	c #005347",
"r+	c #004B3F",
"s+	c #00352C",
"t+	c #111813",
"u+	c #1E1009",
"v+	c #0D1108",
"w+	c #0A1D0D",
"x+	c #101909",
"y+	c #1F1C0C",
"z+	c #212E21",
"A+	c #204335",
"B+	c #11493D",
"C+	c #00493E",
"D+	c #143F34",
"E+	c #18281E",
"F+	c #1E1B0B",
"G+	c #0E1A0A",
"H+	c #27200A",
"I+	c #4F3D14",
"J+	c #55431B",
"K+	c #524622",
"L+	c #32331F",
"M+	c #03211C",
"N+	c #242C1F",
"O+	c #37341E",
"P+	c #443718",
"Q+	c #4A3912",
"R+	c #1E1B09",
"S+	c #091A0B",
"T+	c #2A200A",
"U+	c #564215",
"V+	c #5C4616",
"W+	c #594415",
"X+	c #36280B",
"Y+	c #071307",
"Z+	c #161909",
"`+	c #392B0E",
" @	c #554115",
".@	c #523E14",
"+@	c #211B08",
"@@	c #1A1F0C",
"#@	c #352F10",
"$@	c #393212",
"%@	c #373010",
"&@	c #22240D",
"*@	c #22220C",
"=@	c #383111",
"-@	c #332E11",
";@	c #151E0C",
">@	c #0E220F",
",@	c #0F2210",
"'@	c #0D210E",
"  .   + . . + . . @ # $ % .   . # & * = . *   .   - # & ; * . = ",
".       .   > # %   $ % # = , ' @     # . # ;   $ > )     ; # . ",
"  # % .   # #   +     .   ! = # # . #   # & % . = #   # # = # # ",
"% @ > ~ #   { { @ {   { { @ @   {   @ { = { { % @ @ { @ > { # . ",
"] % $ #   ] # * ^ $ ; *   / # @ #   . # = $ # # ) % ( ; . , = ! ",
"# .   * . = ^ * *   # #   . # _ : < : : $ # ^ #   .   $ ; * [ ( ",
". @     # # @ # @   + # * + } | 1 2 3 4 $ *     $ @   @     # [ ",
"  /   *   # # # =   # . ^ 5 6 7 8 9 0 a b $   * # # ; #     # # ",
"# % # . # %       # # c d e f g h i j k * . # ( * @   ^   . / . ",
"  * ]     # #   # l m n o p q r s t u v w $ @   = [   * @ @ # , ",
"% @     # @ @ @ x y z A B C D E F G H I J K x   % { { @     # - ",
"% # * ,   # - L M N O P Q R S T U V W X Y Z ` b   $ * # $ , & % ",
"& % @ # $ =    ...+.@.#.$.%.&.*.=.-.;.>.,.'.).!.$ %     @ # $ . ",
"# = # $ =   * ~.{.].^./.(._.:.<.[.}.|.1.2.3.4.5.= # # # # .   . ",
"@   @ @ @ $ ; 6.7.8.9.0.a.b.c.d.d.e.f.g.h.i.j.k.# * @ % @ { # & ",
"@ @     # @ @ l.m.n.o.p.q.h h r.r.r.s.t.u.v.w.x.  @ { @ #   # . ",
"  =   . . # . , y.z.A.B.C.D.E.F.G.H.I.J.K.L.y.. * # * % ; # - % ",
"    # & # @ # # $ M.N.O.P.Q.R.S.T.U.V.W.X.Y.$ . # '   + # .   # ",
"    @ @ @ .   @   Z.`. +.+++@+#+$+%+&+*+=+-+{ % = # @   > @ = - ",
"  @ # # * @ @ % * ;+>+,+'+)+!+~+{+]+^+/+(+_+#   ] @ @ @ # # ( ! ",
"@ # ; &   = $ $ :+<+[+}+|+1+2+3+4+5+6+7+8+9+# . % - . . # & &   ",
"&     # & # % # 0+a+b+c+d+e+f+g+f+u.h+i+j+: # # , % @     # . . ",
"  #   & %   . = . k+l+m+n+o+p+q+r+s+t+u+v+0+# .   # # .   .   . ",
"@ % * /   * # *   w+x+y+z+A+B+C+>.D+E+F+G+$   /   . # # # # . ( ",
"# .   * . = ^ * * : H+I+J+K+L+M+N+O+P+Q+R+: ^ #   .   $ ; * [ ( ",
". @     # # @ # @ S+T+U+V+W+X+Y+Z+`+ @.@+@0+    $ @   @     # [ ",
"  #   #   # # # * * @@#@$@%@&@: c *@=@-@;@,   # # #   . #   = # ",
"@ @ > { # @ ~ ~ @ { @ >@,@'@> @ { @ >@{ # { > @ > { { { @ @ % . ",
"@   . .   ; * $ # . # # #   *   . # $ . = $ # #   * # . $ - . ( ",
". = @ * & =   #   % +   # [ = . @ $   . .   # # # #   . % * . . ",
".   # # (       ; = # # ; # .   ;   # # # .   . . @     #   # # ",
"% * @     # #   # @ * # @   / .   . ; @   # @     +   +   @ # . "};
