/* XPM */
static char * Run_Body_180_0006_con prato_xpm[] = {
"32 32 140 2",
"  	c #0B200D",
". 	c #0A1E0C",
"+ 	c #0C210E",
"@ 	c #0B1F0D",
"# 	c #0B1E0D",
"$ 	c #0A1E0D",
"% 	c #0C200E",
"& 	c #0A1F0D",
"* 	c #0A1D0C",
"= 	c #091D0B",
"- 	c #091C0B",
"; 	c #0D210F",
"> 	c #0C1F0E",
", 	c #091D0C",
"' 	c #0E2210",
") 	c #0D220F",
"! 	c #0F2211",
"~ 	c #0E2310",
"{ 	c #0A1F0C",
"] 	c #0B1F0E",
"^ 	c #091E0C",
"/ 	c #0B200E",
"( 	c #171F0D",
"_ 	c #261D0B",
": 	c #111F0D",
"< 	c #24200E",
"[ 	c #181E0D",
"} 	c #281C09",
"| 	c #1A1E0C",
"1 	c #271E0B",
"2 	c #491B08",
"3 	c #AE0804",
"4 	c #731608",
"5 	c #5D1B0B",
"6 	c #391B07",
"7 	c #411C0B",
"8 	c #0D200F",
"9 	c #0C210F",
"0 	c #341E0C",
"a 	c #57190A",
"b 	c #840E02",
"c 	c #391C06",
"d 	c #781806",
"e 	c #AD0302",
"f 	c #6E2007",
"g 	c #5B1403",
"h 	c #B60000",
"i 	c #441A0A",
"j 	c #790802",
"k 	c #A80101",
"l 	c #9F0100",
"m 	c #930801",
"n 	c #441B07",
"o 	c #6E1602",
"p 	c #6B1904",
"q 	c #770602",
"r 	c #8F0000",
"s 	c #4B0B04",
"t 	c #541A0B",
"u 	c #0D200E",
"v 	c #2D1D0C",
"w 	c #641508",
"x 	c #2B0A07",
"y 	c #4F0202",
"z 	c #550401",
"A 	c #790101",
"B 	c #600C01",
"C 	c #990301",
"D 	c #970404",
"E 	c #3D1A0F",
"F 	c #2A1106",
"G 	c #580C06",
"H 	c #981C00",
"I 	c #471E0B",
"J 	c #6E1608",
"K 	c #9C0600",
"L 	c #810C05",
"M 	c #552A09",
"N 	c #520802",
"O 	c #5D230C",
"P 	c #511602",
"Q 	c #951708",
"R 	c #930F02",
"S 	c #231B0B",
"T 	c #7F1804",
"U 	c #9D2700",
"V 	c #831503",
"W 	c #681307",
"X 	c #8E0F00",
"Y 	c #731503",
"Z 	c #7F3503",
"` 	c #733709",
" .	c #501D05",
"..	c #4C1802",
"+.	c #731F05",
"@.	c #741405",
"#.	c #770C04",
"$.	c #511B09",
"%.	c #6D0803",
"&.	c #893503",
"*.	c #4C1A0A",
"=.	c #341E0D",
"-.	c #7C2802",
";.	c #6D0505",
">.	c #471306",
",.	c #30210B",
"'.	c #3C1508",
").	c #790302",
"!.	c #6A0B05",
"~.	c #3A1A0B",
"{.	c #6C3109",
"].	c #6E3E0A",
"^.	c #14200E",
"/.	c #6E0202",
"(.	c #560602",
"_.	c #603909",
":.	c #20240E",
"<.	c #5F0A03",
"[.	c #7F0102",
"}.	c #590F05",
"|.	c #35280C",
"1.	c #643B0A",
"2.	c #5A0F05",
"3.	c #271D0C",
"4.	c #490A03",
"5.	c #880000",
"6.	c #4B1A09",
"7.	c #17210D",
"8.	c #652C04",
"9.	c #610000",
"0.	c #562A07",
"a.	c #13200E",
"b.	c #6C0903",
"c.	c #5D1806",
"d.	c #38260D",
"e.	c #0E2110",
"f.	c #0C200F",
"g.	c #653408",
"h.	c #814805",
"i.	c #7D4907",
"  . + @ . @ # . $ +   $ % & @ * $ * @ @ @ @ % . + =   - % @ .   ",
". % @   = % ; @ % > . ; @ + , ; ; % % @ @ # # @ - ; ; % @ @ @ * ",
"% . + #   @   % . % @ . + .   @ @ @ @ @ % * + . % @ % . @ % @ @ ",
"% ; ' ' % % ' ' ; ' ; ' ' ) % % ! ; ' ~ % ' ' + ) ; ' ; ) ' @ . ",
"% % * # @ % $ . % , % @   % > % @ % # { @ * $ # % % . % * - @ . ",
"@ . ; . .   ] @ # + @ @ > @ % * @ , > # @ @ > . % . ; = % $ . . ",
"^ % %   . @ + % % % @ / @   - % ( + @ @ @ $ % { * ; % % @ % @ @ ",
"% @ % @ @ # @ @ @ % @ . + _ : < [ } | % @ . % . @ @ % .   % @ @ ",
"@ % @ .   % @ % % @ %   % 1 2 3 4 5 6 7 + . @ { & % @ > @ # % . ",
"% @ 8 % 9 . @ % @ ' . 0 a b c d e f g h i @ ; + % . %   ; ; % - ",
") 8 % % # 8 ; ; ; % ; j k l m n o p q r s t u @ % ; ' 8 % % @ . ",
"+ @ > = @ @ * .   v w x y z A B C D E F G H I . % . # @ # , = + ",
"* ; % @ . @ % . ) J K L M N O P Q R S : T U V   * % % ; % @ @ . ",
"@   % $ + % @ % @ W X Y Z `  ...+.@.#.. $.%.&.@ @ % @ % @ @ + . ",
"+ % ; ; + * % ; % ' *.=.-.;.>.,.'.).!.) @ ~.{.].@ # ; % ; ' @ ^ ",
"% ; @ @ # ; ; + ; . % ^./.(._.:.<.[.}.% @ @ |.1.8 ; ; ; @ @ { . ",
"@ / @ . @   . * ] @ @ [ 2.3.* @ 4.5.6.  . . @ 7.@ @ $ % @ * . % ",
"+   @ ,   % @ % @ @ % @ % @ $ ; 8.9.0.@ + . @ .   @ @ @ @ . % @ ",
"@ % ' ; + . % ; % ! @ % ; % / # a.b.c.d.% ; ' + @ @ e.% ' ' @ = ",
"; f.@ @ # ; % % ; $ % %   % % ; ' g.h.i.@ #   @ % ; % 9 @ @ { = ",
"% % % *   . * * @ @   * % ^ + * @ * @ . = # % &   * *   @ , . % ",
". % % @ * % ; @ ; % @ % @   = % % ; % @ @ @ @   , ; ; % % @ @   ",
"  @ % . + @ {   @ % @ @ @ . / + % . % . % * % @ / @   @ @ $ + . ",
"; + . @ % @ # # % . # @ % % # > @ # # % & * @ @ > @ . @ # # . { ",
"@ . ; . .   ] @ # + @ @ > @ % * @ , > # @ @ > . % . ; = % $ . . ",
"^ % %   . @ + % % % @ / @   - % ; + @ @ @ $ % { * ; % % @ % @ @ ",
"% # % @ + $ @ % . % . . ; @ + . % . @ %   . %   % $ % . @ % @ . ",
"% ; ; ' @ ; ' ' ; ' ' ' ' ; + ; ' ' ) ' + ' ) % ) ) ' ; ; ;   * ",
"+ % . . / @ # * @ . % . % @ ] # @ # # * { * # & > @ * @ * , @ { ",
". @ % @ = @ % @ % % @ % @ @ @ @ % . % # . % @ { # @ ; . % . * { ",
". %   @ { @ %   % @ @ @ % @ . % @ ; @ @   . % . . % @ % @ % @ @ ",
"% @ ; 9 ; $ @ % @ e.# % ; % @ $ % @ % ; % @ ; ; + . % @ % ; % , "};
