/* XPM */
static char * Run_Body_000_0014_con prato_xpm[] = {
"32 32 176 2",
"  	c #0B200D",
". 	c #0A1E0C",
"+ 	c #0C210E",
"@ 	c #0B1F0D",
"# 	c #0B1E0D",
"$ 	c #0A1E0D",
"% 	c #0C200E",
"& 	c #0A1F0D",
"* 	c #0A1D0C",
"= 	c #091D0B",
"- 	c #091C0B",
"; 	c #0D210F",
"> 	c #0C1F0E",
", 	c #091D0C",
"' 	c #0E2210",
") 	c #0D220F",
"! 	c #0F2211",
"~ 	c #0E2310",
"{ 	c #0A1F0C",
"] 	c #0B1F0E",
"^ 	c #4A310C",
"/ 	c #15210D",
"( 	c #091E0C",
"_ 	c #1F230D",
": 	c #7A4308",
"< 	c #48320C",
"[ 	c #27230D",
"} 	c #5C2D0A",
"| 	c #55310A",
"1 	c #4D1B0C",
"2 	c #760401",
"3 	c #401F0B",
"4 	c #1C210D",
"5 	c #372009",
"6 	c #531D08",
"7 	c #581B08",
"8 	c #361E0A",
"9 	c #14200F",
"0 	c #0B200E",
"a 	c #681206",
"b 	c #921F00",
"c 	c #4F1708",
"d 	c #3B1E07",
"e 	c #381908",
"f 	c #4A0A04",
"g 	c #540E06",
"h 	c #3E1A06",
"i 	c #2D1B07",
"j 	c #0B1D0C",
"k 	c #38280B",
"l 	c #891303",
"m 	c #9B3300",
"n 	c #7C0D04",
"o 	c #331D0B",
"p 	c #15200D",
"q 	c #8F0602",
"r 	c #9B0000",
"s 	c #511707",
"t 	c #241D0E",
"u 	c #5D3909",
"v 	c #7A4207",
"w 	c #6D1607",
"x 	c #770600",
"y 	c #612809",
"z 	c #231D0C",
"A 	c #591508",
"B 	c #A20000",
"C 	c #A70101",
"D 	c #431907",
"E 	c #693A07",
"F 	c #341A0A",
"G 	c #4D2208",
"H 	c #0C210F",
"I 	c #23210F",
"J 	c #24140A",
"K 	c #660702",
"L 	c #A50903",
"M 	c #A20702",
"N 	c #8B0E04",
"O 	c #B50100",
"P 	c #A80000",
"Q 	c #701709",
"R 	c #601B0B",
"S 	c #401A0A",
"T 	c #800100",
"U 	c #840E03",
"V 	c #0D200F",
"W 	c #141B0C",
"X 	c #870100",
"Y 	c #9F0200",
"Z 	c #B00101",
"` 	c #730C04",
" .	c #9F0000",
"..	c #9B0F03",
"+.	c #880401",
"@.	c #A11106",
"#.	c #371E0C",
"$.	c #992402",
"%.	c #8B1B03",
"&.	c #0C1F0D",
"*.	c #3E1507",
"=.	c #5F0402",
"-.	c #B80000",
";.	c #950501",
">.	c #920202",
",.	c #8B0000",
"'.	c #C70401",
").	c #830300",
"!.	c #AF0100",
"~.	c #800D02",
"{.	c #A03100",
"].	c #852503",
"^.	c #0F1D0C",
"/.	c #1B1A0A",
"(.	c #6F0100",
"_.	c #850201",
":.	c #770A05",
"<.	c #A40100",
"[.	c #9D0000",
"}.	c #650201",
"|.	c #700000",
"1.	c #420603",
"2.	c #4C0703",
"3.	c #711805",
"4.	c #271407",
"5.	c #610202",
"6.	c #750401",
"7.	c #580201",
"8.	c #5C0202",
"9.	c #660202",
"0.	c #151D0D",
"a.	c #131C0C",
"b.	c #361C0A",
"c.	c #30200E",
"d.	c #4E1206",
"e.	c #6F0403",
"f.	c #7E0504",
"g.	c #7C0302",
"h.	c #660301",
"i.	c #650B04",
"j.	c #5A0D06",
"k.	c #470A06",
"l.	c #370503",
"m.	c #610000",
"n.	c #570000",
"o.	c #2D0E07",
"p.	c #5A2106",
"q.	c #37260B",
"r.	c #4E0C04",
"s.	c #600000",
"t.	c #4C0D05",
"u.	c #13190A",
"v.	c #581605",
"w.	c #770501",
"x.	c #5C1C07",
"y.	c #33180A",
"z.	c #680200",
"A.	c #6F0000",
"B.	c #5A1206",
"C.	c #1E1D0D",
"D.	c #391206",
"E.	c #341E0A",
"F.	c #0C200F",
"G.	c #482207",
"H.	c #3A0200",
"I.	c #3F1B06",
"J.	c #21230F",
"K.	c #461405",
"L.	c #2B0100",
"M.	c #0F1F0D",
"N.	c #4E2F0A",
"O.	c #301206",
"P.	c #281206",
"Q.	c #0A1D0D",
"R.	c #091E0B",
"S.	c #0E2110",
"  . + @ . @ # . $ +   $ % & @ * $ * @ @ @ @ % . + =   - % @ .   ",
". % @   = % ; @ % > . ; @ + , ; ; % % @ @ # # @ - ; ; % @ @ @ * ",
"% . + #   @   % . % @ . + .   @ @ @ @ @ % * + . % @ % . @ % @ @ ",
"% ; ' ' % % ' ' ; ' ; ' ' ) % % ! ; ' ~ % ' ' + ) ; ' ; ) ' @ . ",
"% % * # @ % $ . % , % @   % > % @ % # { @ * $ # % % . % * - @ . ",
"@ . ; . .   ] @ # + ^ / > @ % * @ , > # @ @ > . % . ; = % $ . . ",
"( % %   . @ + % % _ : < @   - % ; + @ @ @ $ % { * ; % % @ % @ @ ",
"% # % @ + $ @ % . [ } | ; @ + . % . @ %   . %   % $ % . @ % @ . ",
"% ; ; ' @ ; ' ' ; 1 2 3 ' 4 5 6 7 8 9 ' + ' ) % ) ) ' ; ; ;   * ",
"+ % . . 0 @ # * @ a b c % d e f g h i * { j k & > @ * @ * , @ { ",
". @ % @ = @ % @ % l m n @ o p q r s t # u % v { # @ ; . % . * { ",
". %   @ { @ %   % w x y % z A B C D @ @ E F G . . % @ % @ % @ @ ",
"% @ ; H ; $   % @ I J K L M N O P Q R ; S T U ; + . % @ % ; % , ",
"% ; % + . ; ) ; V % W X Y Z `  .r ..+.@.#.$.%.&.% ; ' % % %   . ",
") . > . { @ . $ @ @ + *.=.-.;.>.,.'.).!.~.{.].^.% @ # . # * {   ",
"* ; % 0 . @ ; $ ; % . % /.(._.:.<.[.}.|.1.2.3.+ * % % % % @   . ",
". + + # % @ @ % % %   .   4.5.6.7.8.9.0.a.b.+ .   % @ % @ %   @ ",
"; % ; ' % % ; ; % '   ; c.d.e.f.g.h.i.'   ; ; + % @ ' % ; ' % @ ",
"; ) @   ] V % % + @ % > j.k.l.m.n.o.p.q.  > @ % % ; % % @ @ + = ",
"% . % $ . . $ . . ; @ * r.s.t.u.v.w.x.  . $ % . % , @ = > # .   ",
". % % % . % ) @ + % * + y.z.A.B.C.D.E.@ . @ ] % * ) F.% % > @ . ",
"% @ + . % @ @ % $ % % . % G.H.I.@ . @ 0 @ = + .   @ % @ @   @ @ ",
"+ ; ) ' @ % ' ' ; ' % ' J.K.L.M.' % ) '   ' ' H ; ; ' ; ) ' @ . ",
"V + * # % V @ . 0 , > @ N.O.P.; @ % . @   Q.. @ % % . % * -   R.",
"@ . ; . .   ] @ # + @ @ > @ % * @ , > # @ @ > . % . ; = % $ . . ",
"( % %   . @ + % % % @ 0 @   - % ; + @ @ @ $ % { * ; % % @ % @ @ ",
"% # % @ + $ @ % . % . . ; @ + . % . @ %   . %   % $ % . @ % @ . ",
"% ; ; ' @ ; ' ' ; ' ' ' ' ; + ; ' ' ) ' + ' ) % ) ) ' ; ; ;   * ",
"+ % . . 0 @ # * @ . % . % @ ] # @ # # * { * # & > @ * @ * , @ { ",
". @ % @ = @ % @ % % @ % @ @ @ @ % . % # . % @ { # @ ; . % . * { ",
". %   @ { @ %   % @ @ @ % @ . % @ ; @ @   . % . . % @ % @ % @ @ ",
"% @ ; H ; $ @ % @ S.# % ; % @ $ % @ % ; % @ ; ; + . % @ % ; % , "};
