/* XPM */
static char * Run_Body_112_0001_con prato_xpm[] = {
"32 32 139 2",
"  	c #0B200D",
". 	c #0A1E0C",
"+ 	c #0C210E",
"@ 	c #0B1F0D",
"# 	c #0B1E0D",
"$ 	c #0A1E0D",
"% 	c #0C200E",
"& 	c #0A1F0D",
"* 	c #0A1D0C",
"= 	c #091D0B",
"- 	c #091C0B",
"; 	c #0D210F",
"> 	c #0C1F0E",
", 	c #091D0C",
"' 	c #0E2210",
") 	c #0D220F",
"! 	c #0F2211",
"~ 	c #0E2310",
"{ 	c #0A1F0C",
"] 	c #0B1F0E",
"^ 	c #091E0C",
"/ 	c #0B200E",
"( 	c #0D200E",
"_ 	c #0D200F",
": 	c #0C210F",
"< 	c #13210E",
"[ 	c #1F1F0D",
"} 	c #1D1D0C",
"| 	c #5B1705",
"1 	c #491E06",
"2 	c #4E1706",
"3 	c #761506",
"4 	c #721708",
"5 	c #13200E",
"6 	c #581B0B",
"7 	c #920D03",
"8 	c #A00402",
"9 	c #AC0502",
"0 	c #8B0F01",
"a 	c #52230B",
"b 	c #9E2500",
"c 	c #921000",
"d 	c #871303",
"e 	c #52290B",
"f 	c #5B360B",
"g 	c #2C1C0B",
"h 	c #AA0A02",
"i 	c #9F0501",
"j 	c #980C04",
"k 	c #971306",
"l 	c #521706",
"m 	c #661A04",
"n 	c #8A0904",
"o 	c #811F03",
"p 	c #540F03",
"q 	c #713404",
"r 	c #814A09",
"s 	c #35280B",
"t 	c #0C200F",
"u 	c #1A1E0C",
"v 	c #6F1103",
"w 	c #721104",
"x 	c #5A1506",
"y 	c #371704",
"z 	c #3E1904",
"A 	c #3E1906",
"B 	c #751002",
"C 	c #8F0B05",
"D 	c #241E0D",
"E 	c #0D1F0D",
"F 	c #1C220E",
"G 	c #291D0C",
"H 	c #B90100",
"I 	c #A90000",
"J 	c #B20000",
"K 	c #7E0000",
"L 	c #740000",
"M 	c #4C0703",
"N 	c #670903",
"O 	c #B72709",
"P 	c #231D0C",
"Q 	c #341B0B",
"R 	c #870000",
"S 	c #7B0200",
"T 	c #A80000",
"U 	c #880000",
"V 	c #6C0402",
"W 	c #471910",
"X 	c #5B1307",
"Y 	c #431E0B",
"Z 	c #860301",
"` 	c #C10101",
" .	c #860100",
"..	c #601404",
"+.	c #730705",
"@.	c #740101",
"#.	c #50190B",
"$.	c #790605",
"%.	c #700000",
"&.	c #5F0201",
"*.	c #540E06",
"=.	c #570100",
"-.	c #5E0E00",
";.	c #7E3302",
">.	c #0F1F0D",
",.	c #3D1607",
"'.	c #730101",
").	c #380C04",
"!.	c #3F120D",
"~.	c #790301",
"{.	c #612306",
"].	c #5F0C05",
"^.	c #6D3706",
"/.	c #673C09",
"(.	c #431705",
"_.	c #620000",
":.	c #6A0304",
"<.	c #850401",
"[.	c #9D2100",
"}.	c #A21700",
"|.	c #720701",
"1.	c #582F07",
"2.	c #673B0B",
"3.	c #0E2110",
"4.	c #2D220C",
"5.	c #6E0000",
"6.	c #610501",
"7.	c #7E0201",
"8.	c #8B1300",
"9.	c #840A02",
"0.	c #621306",
"a.	c #15210F",
"b.	c #4D2408",
"c.	c #693003",
"d.	c #691206",
"e.	c #0E200E",
"f.	c #623C0A",
"g.	c #2F220B",
"h.	c #1A1C0B",
"  . + @ . @ # . $ +   $ % & @ * $ * @ @ @ @ % . + =   - % @ .   ",
". % @   = % ; @ % > . ; @ + , ; ; % % @ @ # # @ - ; ; % @ @ @ * ",
"% . + #   @   % . % @ . + .   @ @ @ @ @ % * + . % @ % . @ % @ @ ",
"% ; ' ' % % ' ' ; ' ; ' ' ) % % ! ; ' ~ % ' ' + ) ; ' ; ) ' @ . ",
"% % * # @ % $ . % , % @   % > % @ % # { @ * $ # % % . % * - @ . ",
"@ . ; . .   ] @ # + @ @ > @ % * @ , > # @ @ > . % . ; = % $ . . ",
"^ % %   . @ + % % % @ / @   - % ; + @ @ @ $ % { * ; % % @ % @ @ ",
"% @ % @ @ # @ @ @ % @ . + .     @ @ @ % @ . % . @ @ % .   % @ @ ",
"@ % @ .   % @ % % @ %   %   . % @ ( @ @ + . @ { & % @ > @ # % . ",
"% @ _ % : . @ % @ ' . > < [ } | 1 2 3 4 @ @ ; + % . %   ; ; % - ",
") _ % % # _ ; ; ; % ; 5 6 7 8 9 0 a b c d e f @ % ; ' _ % % @ . ",
"+ @ > = @ @ * .   . + g h i j k l m n o p q r s % . # @ # , = + ",
"* ; % @ . @ % . ) t u v w x y z A B C D * @ E F * % % ; % @ @ . ",
"@   % $ + % @ % @ % G H I J K L M N O P % . % @ @ % @ % @ @ + . ",
"+ % ; ; + * % ; % ' Q R S T U V W X Y ) @ % ' ; @ # ; % ; ' @ ^ ",
"% ; @ @ # ; ; + ; . ( Z `  ...+.@.#.% % @ @ @ % _ ; ; ; @ @ { . ",
"@ / @ . @   . * ] @ P $.%.&.*.=.-.;.>.  . . @ @ @ @ $ % @ * . % ",
"+   @ ,   % @ % @ @ ,.'.).!.~.{.].^./.@ + . @ .   @ @ @ @ . % @ ",
"@ % ' ; + . % ; % ! (._.:.<.[.}.|.1.2.; % ; ' + @ @ 3.% ' ' @ = ",
"; t @ @ # ; % % ; $ 4.5.6.7.8.9.0.a.@ % @ #   @ % ; % : @ @ { = ",
"% % % *   . * * @ @   b.c.&.d.* @ * @ . = # % &   * *   @ , . % ",
". % % @ * % ; @ ; % @ e.f.g.h.% % ; % @ @ @ @   , ; ; % % @ @   ",
"  @ % . + @ {   @ % @ @ @ . / + % . % . % * % @ / @   @ @ $ + . ",
"; + . @ % @ # # % . # @ % % # > @ # # % & * @ @ > @ . @ # # . { ",
"@ . ; . .   ] @ # + @ @ > @ % * @ , > # @ @ > . % . ; = % $ . . ",
"^ % %   . @ + % % % @ / @   - % ; + @ @ @ $ % { * ; % % @ % @ @ ",
"% # % @ + $ @ % . % . . ; @ + . % . @ %   . %   % $ % . @ % @ . ",
"% ; ; ' @ ; ' ' ; ' ' ' ' ; + ; ' ' ) ' + ' ) % ) ) ' ; ; ;   * ",
"+ % . . / @ # * @ . % . % @ ] # @ # # * { * # & > @ * @ * , @ { ",
". @ % @ = @ % @ % % @ % @ @ @ @ % . % # . % @ { # @ ; . % . * { ",
". %   @ { @ %   % @ @ @ % @ . % @ ; @ @   . % . . % @ % @ % @ @ ",
"% @ ; : ; $ @ % @ 3.# % ; % @ $ % @ % ; % @ ; ; + . % @ % ; % , "};
