/* XPM */
static char * Run_Body_270_0015_con prato_xpm[] = {
"32 32 153 2",
"  	c #0B200D",
". 	c #0A1E0C",
"+ 	c #0C210E",
"@ 	c #0B1F0D",
"# 	c #0B1E0D",
"$ 	c #0A1E0D",
"% 	c #0C200E",
"& 	c #0A1F0D",
"* 	c #0A1D0C",
"= 	c #091D0B",
"- 	c #091C0B",
"; 	c #0D210F",
"> 	c #0C1F0E",
", 	c #091D0C",
"' 	c #0E2210",
") 	c #0D220F",
"! 	c #0F2211",
"~ 	c #0E2310",
"{ 	c #0A1F0C",
"] 	c #0B1F0E",
"^ 	c #091E0C",
"/ 	c #0B200E",
"( 	c #1D1F0C",
"_ 	c #2D1E09",
": 	c #261E0B",
"< 	c #56380C",
"[ 	c #7D4407",
"} 	c #45260A",
"| 	c #552109",
"1 	c #422009",
"2 	c #4D1C08",
"3 	c #271C09",
"4 	c #121F0D",
"5 	c #0D200F",
"6 	c #0C210F",
"7 	c #29260F",
"8 	c #68320B",
"9 	c #781F03",
"0 	c #710902",
"a 	c #911E01",
"b 	c #942A01",
"c 	c #950C03",
"d 	c #9E0C03",
"e 	c #56180A",
"f 	c #171E0C",
"g 	c #2B200E",
"h 	c #8B0603",
"i 	c #4E1A06",
"j 	c #4E1D09",
"k 	c #9B0F03",
"l 	c #AC0101",
"m 	c #A70101",
"n 	c #AB0100",
"o 	c #A50501",
"p 	c #101F0E",
"q 	c #6E2108",
"r 	c #4D1206",
"s 	c #371504",
"t 	c #381906",
"u 	c #591608",
"v 	c #6F1406",
"w 	c #891204",
"x 	c #980502",
"y 	c #741407",
"z 	c #0C200F",
"A 	c #4A320C",
"B 	c #402E0D",
"C 	c #36260B",
"D 	c #2A190A",
"E 	c #301D0C",
"F 	c #7B0804",
"G 	c #B20100",
"H 	c #B10000",
"I 	c #8D0100",
"J 	c #7E0C03",
"K 	c #671607",
"L 	c #29260D",
"M 	c #6B3C08",
"N 	c #743F08",
"O 	c #633506",
"P 	c #5D1206",
"Q 	c #960200",
"R 	c #890101",
"S 	c #BA0000",
"T 	c #AD0100",
"U 	c #5F1508",
"V 	c #3C280C",
"W 	c #4F1A08",
"X 	c #7B0500",
"Y 	c #4D1B0A",
"Z 	c #581206",
"` 	c #760101",
" .	c #9E0000",
"..	c #A80100",
"+.	c #6E0100",
"@.	c #650101",
"#.	c #4D180A",
"$.	c #531407",
"%.	c #901C01",
"&.	c #980E00",
"*.	c #891201",
"=.	c #371108",
"-.	c #4C0100",
";.	c #730101",
">.	c #450301",
",.	c #6B0100",
"'.	c #551106",
").	c #6D1105",
"!.	c #911A00",
"~.	c #790401",
"{.	c #500B06",
"].	c #4A0803",
"^.	c #590302",
"/.	c #610000",
"(.	c #640302",
"_.	c #211709",
":.	c #211E0C",
"<.	c #7C4005",
"[.	c #612D0B",
"}.	c #6E1103",
"|.	c #580C04",
"1.	c #580503",
"2.	c #680601",
"3.	c #610603",
"4.	c #4D0C03",
"5.	c #0C200D",
"6.	c #482809",
"7.	c #4E0D04",
"8.	c #622B05",
"9.	c #780101",
"0.	c #7B0103",
"a.	c #510702",
"b.	c #4E0301",
"c.	c #0E2110",
"d.	c #551408",
"e.	c #640401",
"f.	c #690401",
"g.	c #391909",
"h.	c #652C02",
"i.	c #1D190A",
"j.	c #541005",
"k.	c #5A0000",
"l.	c #4D0F04",
"m.	c #0B1D0B",
"n.	c #5C0F04",
"o.	c #401005",
"p.	c #1D200E",
"q.	c #211C0C",
"r.	c #663E0A",
"s.	c #5A2C09",
"t.	c #4D2A09",
"u.	c #5D3908",
"v.	c #1E230D",
"  . + @ . @ # . $ +   $ % & @ * $ * @ @ @ @ % . + =   - % @ .   ",
". % @   = % ; @ % > . ; @ + , ; ; % % @ @ # # @ - ; ; % @ @ @ * ",
"% . + #   @   % . % @ . + .   @ @ @ @ @ % * + . % @ % . @ % @ @ ",
"% ; ' ' % % ' ' ; ' ; ' ' ) % % ! ; ' ~ % ' ' + ) ; ' ; ) ' @ . ",
"% % * # @ % $ . % , % @   % > % @ % # { @ * $ # % % . % * - @ . ",
"@ . ; . .   ] @ # + @ @ > @ % * @ , > # @ @ > . % . ; = % $ . . ",
"^ % %   . @ + % % % @ / @   - % ; + @ @ @ $ % { * ; % % @ % @ @ ",
"% @ % @ @ # @ @ @ % @ . + .   ( _ : @ % @ . % . @ @ % .   % @ @ ",
"@ % @ .   % @ % % @ %   < [ } | 1 2 3 4 + . @ { & % @ > @ # % . ",
"% @ 5 % 6 . @ % @ ' . > 7 8 9 0 a b c d e f ; + % . %   ; ; % - ",
") 5 % % # 5 ; ; ; % ; ; g h i j k l m n o p % @ % ; ' 5 % % @ . ",
"+ @ > = @ @ * .   . + . @ q r s t u v w x y % . % . # @ # , = + ",
"* ; % @ . @ % . ) z @ A B C D E F G H I J K @   * % % ; % @ @ . ",
"@   % $ + % @ % @ % L M N O @ ; P Q R S T U % @ @ % @ % @ @ + . ",
"+ % ; ; + * % ; % ' @ V W X Y Z `  ...+.@.#.' ; @ # ; % ; ' @ ^ ",
"% ; @ @ # ; ; + ; . % % $.%.&.*.=.-.;.>.,.'.@ % 5 ; ; ; @ @ { . ",
"@ / @ . @   . * ] @ @ @ % ).!.~.{.].^./.(._.@ @ @ @ $ % @ * . % ",
"+   @ ,   % @ % @ @ % @ % :.<.[.}.|.1.2.3.4.@ .   @ @ @ @ . % @ ",
"@ % ' ; + . % ; % ! @ % ; % 5.6.7.8.9.0.a.b.' + @ @ c.% ' ' @ = ",
"; z @ @ # ; % % ; $ % %   % % ; ' d.e.f.g.h.i.@ % ; % 6 @ @ { = ",
"% % % *   . * * @ @   * % ^ + * @ j.k.l.m.n.o.&   * *   @ , . % ",
". % % @ * % ; @ ; % @ % @   = % % p.q.@ r.s.t.  , ; ; % % @ @   ",
"  @ % . + @ {   @ % @ @ @ . / + % . % . % u.v.@ / @   @ @ $ + . ",
"; + . @ % @ # # % . # @ % % # > @ # # % & * @ @ > @ . @ # # . { ",
"@ . ; . .   ] @ # + @ @ > @ % * @ , > # @ @ > . % . ; = % $ . . ",
"^ % %   . @ + % % % @ / @   - % ; + @ @ @ $ % { * ; % % @ % @ @ ",
"% # % @ + $ @ % . % . . ; @ + . % . @ %   . %   % $ % . @ % @ . ",
"% ; ; ' @ ; ' ' ; ' ' ' ' ; + ; ' ' ) ' + ' ) % ) ) ' ; ; ;   * ",
"+ % . . / @ # * @ . % . % @ ] # @ # # * { * # & > @ * @ * , @ { ",
". @ % @ = @ % @ % % @ % @ @ @ @ % . % # . % @ { # @ ; . % . * { ",
". %   @ { @ %   % @ @ @ % @ . % @ ; @ @   . % . . % @ % @ % @ @ ",
"% @ ; 6 ; $ @ % @ c.# % ; % @ $ % @ % ; % @ ; ; + . % @ % ; % , "};
