/* XPM */
static char * Run_Body_000_0005_con prato_xpm[] = {
"32 32 176 2",
"  	c #0B200D",
". 	c #0A1E0C",
"+ 	c #0C210E",
"@ 	c #0B1F0D",
"# 	c #0B1E0D",
"$ 	c #0A1E0D",
"% 	c #0C200E",
"& 	c #0A1F0D",
"* 	c #0A1D0C",
"= 	c #091D0B",
"- 	c #091C0B",
"; 	c #0D210F",
"> 	c #0C1F0E",
", 	c #091D0C",
"' 	c #0E2210",
") 	c #0D220F",
"! 	c #0F2211",
"~ 	c #0E2310",
"{ 	c #0A1F0C",
"] 	c #0B1F0E",
"^ 	c #2C270D",
"/ 	c #22230C",
"( 	c #091E0C",
"_ 	c #0B200E",
": 	c #1D220D",
"< 	c #914D03",
"[ 	c #54310B",
"} 	c #2E280C",
"| 	c #2A240D",
"1 	c #442A0A",
"2 	c #491B0B",
"3 	c #10210E",
"4 	c #44200D",
"5 	c #661B0B",
"6 	c #3B230C",
"7 	c #2D200C",
"8 	c #693C09",
"9 	c #541609",
"0 	c #900000",
"a 	c #6F1709",
"b 	c #2E1B08",
"c 	c #431A06",
"d 	c #5B1002",
"e 	c #380C04",
"f 	c #3E2009",
"g 	c #341E07",
"h 	c #421608",
"i 	c #921B02",
"j 	c #960C01",
"k 	c #521909",
"l 	c #351B08",
"m 	c #491606",
"n 	c #8B0403",
"o 	c #700E05",
"p 	c #201F0A",
"q 	c #2D1D0E",
"r 	c #730D04",
"s 	c #A22500",
"t 	c #851903",
"u 	c #1E1B0B",
"v 	c #571406",
"w 	c #AC0101",
"x 	c #A70101",
"y 	c #421908",
"z 	c #251F0C",
"A 	c #121F0D",
"B 	c #522109",
"C 	c #6A0B03",
"D 	c #6E1506",
"E 	c #0C210F",
"F 	c #5E370A",
"G 	c #693A09",
"H 	c #361F0D",
"I 	c #721A08",
"J 	c #980400",
"K 	c #AC0000",
"L 	c #980401",
"M 	c #831305",
"N 	c #B00201",
"O 	c #840101",
"P 	c #200F06",
"Q 	c #1F230F",
"R 	c #4C2D0A",
"S 	c #551C0C",
"T 	c #5C1A0B",
"U 	c #331F0E",
"V 	c #AE0602",
"W 	c #910501",
"X 	c #AB0501",
"Y 	c #860E04",
"Z 	c #AA0100",
"` 	c #8D0D03",
" .	c #9E0300",
"..	c #890100",
"+.	c #151A0B",
"@.	c #840F03",
"#.	c #7A1105",
"$.	c #541105",
"%.	c #8D0400",
"&.	c #BA0000",
"*.	c #810F03",
"=.	c #9B0000",
"-.	c #8A0000",
";.	c #BA0702",
">.	c #780302",
",.	c #441306",
"'.	c #6C1508",
").	c #841F01",
"!.	c #3A0B06",
"~.	c #370A04",
"{.	c #4F0502",
"].	c #AD0000",
"^.	c #AC0100",
"/.	c #8E0403",
"(.	c #8C0201",
"_.	c #9D0001",
":.	c #361106",
"<.	c #511D0A",
"[.	c #691303",
"}.	c #4B0F09",
"|.	c #0F200D",
"1.	c #670903",
"2.	c #600202",
"3.	c #780000",
"4.	c #730703",
"5.	c #680101",
"6.	c #491005",
"7.	c #0E1F0D",
"8.	c #1E200D",
"9.	c #703F0A",
"0.	c #551205",
"a.	c #6B0000",
"b.	c #790201",
"c.	c #8C0604",
"d.	c #710100",
"e.	c #231E0D",
"f.	c #0D200F",
"g.	c #25200B",
"h.	c #591308",
"i.	c #250602",
"j.	c #4F0000",
"k.	c #4B0000",
"l.	c #390E08",
"m.	c #5B0602",
"n.	c #3F1A0B",
"o.	c #542204",
"p.	c #640603",
"q.	c #600802",
"r.	c #27130A",
"s.	c #590401",
"t.	c #660000",
"u.	c #510A04",
"v.	c #4E0E04",
"w.	c #6F0803",
"x.	c #221E0D",
"y.	c #620000",
"z.	c #580100",
"A.	c #510501",
"B.	c #0C200F",
"C.	c #091E0B",
"D.	c #431D07",
"E.	c #3B0200",
"F.	c #540602",
"G.	c #3E1306",
"H.	c #211C0C",
"I.	c #310101",
"J.	c #4F2706",
"K.	c #1E1708",
"L.	c #310000",
"M.	c #3F1806",
"N.	c #0C1F0D",
"O.	c #0A1D0D",
"P.	c #191D0C",
"Q.	c #271808",
"R.	c #3E260B",
"S.	c #0E2110",
"  . + @ . @ # . $ +   $ % & @ * $ * @ @ @ @ % . + =   - % @ .   ",
". % @   = % ; @ % > . ; @ + , ; ; % % @ @ # # @ - ; ; % @ @ @ * ",
"% . + #   @   % . % @ . + .   @ @ @ @ @ % * + . % @ % . @ % @ @ ",
"% ; ' ' % % ' ' ; ' ; ' ' ) % % ! ; ' ~ % ' ' + ) ; ' ; ) ' @ . ",
"% % * # @ % $ . % , % @   % > % @ % # { @ * $ # % % . % * - @ . ",
"@ . ; . .   ] @ # + @ @ > @ % * @ , ^ / @ @ > . % . ; = % $ . . ",
"( % %   . @ + % % % @ _ @   - % ; + : < [ $ % { * ; % % @ % @ @ ",
"% # % @ + $ @ % . % . . ; @ + . % } | 1 2 . %   % $ % . @ % @ . ",
"% ; ; ' @ ; ' ' ; ' ' ' ' 3 4 5 6 7 8 9 0 a ) % ) ) ' ; ; ;   * ",
"+ % . . _ @ # * @ . % . % b c d e f g h i j k & > @ * @ * , @ { ",
". @ % @ = @ % @ % % @ % @ l m n o p q # r s t { # @ ; . % . * { ",
". %   @ { @ %   % @ @ @ % u v w x y z A B C D . . % @ % @ % @ @ ",
"% @ ; E ; $   % F G # % ; H I J K L M N O P Q ; + . % @ % ; % , ",
"% ; % + . ; ) ; R S T U V W X Y Z 0 `  ...+.% @ % ; ' % % %   . ",
") . > . { @ . $ @ @.#.$.0 %.&.*.=.-.;.>.,.. @ ( % @ # . # * {   ",
"* ; % _ . @ ; $ ; '.).!.~.{.].^./.(._.:..   % + * % % % % @   . ",
". + + # % @ @ % % <.[.}.|.1.2.3.4.5.6.7.@ . + .   % @ % @ %   @ ",
"; % ; ' % % ; ; % ' 8.; 9.0.a.b.c.d.e.'   ; ; + % @ ' % ; ' % @ ",
"; ) @   ] f.% % + @ % > g.h.i.j.k.l.m.n.  > @ % % ; % % @ @ + = ",
"% . % $ . . $ . . ; @ * + o.p.q.r.s.t.u.. $ % . % , @ = > # .   ",
". % % % . % ) @ + % * + @ 7.v.w.x.y.z.A.. @ ] % * ) B.% % > @ . ",
"% @ + . % @ @ % $ % % . % C.  @ D.E.F.G.@ = + .   @ % @ @   @ @ ",
"+ ; ) ' @ % ' ' ; ' % ' ' ; ; % H.I.J.'   ' ' E ; ; ' ; ) ' @ . ",
"f.+ * # % f.@ . _ , > @ _ @ @ ; K.L.M.N.  O.. @ % % . % * -   C.",
"@ . ; . .   ] @ # + @ @ > @ % * P.Q.R.# @ @ > . % . ; = % $ . . ",
"( % %   . @ + % % % @ _ @   - % ; + @ @ @ $ % { * ; % % @ % @ @ ",
"% # % @ + $ @ % . % . . ; @ + . % . @ %   . %   % $ % . @ % @ . ",
"% ; ; ' @ ; ' ' ; ' ' ' ' ; + ; ' ' ) ' + ' ) % ) ) ' ; ; ;   * ",
"+ % . . _ @ # * @ . % . % @ ] # @ # # * { * # & > @ * @ * , @ { ",
". @ % @ = @ % @ % % @ % @ @ @ @ % . % # . % @ { # @ ; . % . * { ",
". %   @ { @ %   % @ @ @ % @ . % @ ; @ @   . % . . % @ % @ % @ @ ",
"% @ ; E ; $ @ % @ S.# % ; % @ $ % @ % ; % @ ; ; + . % @ % ; % , "};
