/* XPM */
static char * Run_Body_270_0005_con prato_xpm[] = {
"32 32 152 2",
"  	c #0B200D",
". 	c #0A1E0C",
"+ 	c #0C210E",
"@ 	c #0B1F0D",
"# 	c #0B1E0D",
"$ 	c #0A1E0D",
"% 	c #0C200E",
"& 	c #0A1F0D",
"* 	c #0A1D0C",
"= 	c #091D0B",
"- 	c #091C0B",
"; 	c #0D210F",
"> 	c #0C1F0E",
", 	c #091D0C",
"' 	c #0E2210",
") 	c #0D220F",
"! 	c #0F2211",
"~ 	c #0E2310",
"{ 	c #0A1F0C",
"] 	c #0B1F0E",
"^ 	c #091E0C",
"/ 	c #0B200E",
"( 	c #2B1E0D",
"_ 	c #501C0B",
": 	c #441809",
"< 	c #744408",
"[ 	c #7F4104",
"} 	c #6E1105",
"| 	c #9C1000",
"1 	c #801404",
"2 	c #6C1205",
"3 	c #331C09",
"4 	c #0F1F0D",
"5 	c #251D0C",
"6 	c #580B03",
"7 	c #881B00",
"8 	c #790D02",
"9 	c #3F2009",
"0 	c #641402",
"a 	c #671304",
"b 	c #281B0A",
"c 	c #231D0C",
"d 	c #141F0D",
"e 	c #0D200F",
"f 	c #0C210F",
"g 	c #1C220D",
"h 	c #623A0A",
"i 	c #4D1A0C",
"j 	c #4F2509",
"k 	c #281D0C",
"l 	c #740201",
"m 	c #BE0301",
"n 	c #AA0401",
"o 	c #481D0C",
"p 	c #151D0C",
"q 	c #70190C",
"r 	c #811004",
"s 	c #341C0A",
"t 	c #551907",
"u 	c #921002",
"v 	c #920D03",
"w 	c #A30D05",
"x 	c #591C0B",
"y 	c #2C1E0C",
"z 	c #9D1703",
"A 	c #700901",
"B 	c #481104",
"C 	c #571404",
"D 	c #531403",
"E 	c #740F07",
"F 	c #7B0C02",
"G 	c #7B0C04",
"H 	c #401B0A",
"I 	c #0C200F",
"J 	c #8E2509",
"K 	c #630D05",
"L 	c #32130A",
"M 	c #770201",
"N 	c #8F0101",
"O 	c #C10000",
"P 	c #AC0000",
"Q 	c #B00100",
"R 	c #4F1B0B",
"S 	c #141E0C",
"T 	c #1C1D0C",
"U 	c #0D210E",
"V 	c #221709",
"W 	c #8A0100",
"X 	c #980200",
"Y 	c #8B0301",
"Z 	c #8B0100",
"` 	c #371B0B",
" .	c #871701",
"..	c #9A0000",
"+.	c #960000",
"@.	c #640000",
"#.	c #571005",
"$.	c #481809",
"%.	c #341B0B",
"&.	c #570101",
"*.	c #430400",
"=.	c #630000",
"-.	c #5A0201",
";.	c #460200",
">.	c #201E0C",
",.	c #191D0B",
"'.	c #5B150A",
").	c #6C0D04",
"!.	c #800D04",
"~.	c #4F1208",
"{.	c #280E0A",
"].	c #2C0D07",
"^.	c #2A1808",
"/.	c #470602",
"(.	c #231507",
"_.	c #6B2406",
":.	c #752201",
"<.	c #810301",
"[.	c #900600",
"}.	c #921600",
"|.	c #5F0903",
"1.	c #1C1E0C",
"2.	c #19200C",
"3.	c #642801",
"4.	c #2B0A03",
"5.	c #29270E",
"6.	c #4F320A",
"7.	c #5B1607",
"8.	c #8E0100",
"9.	c #8E1101",
"0.	c #8E2800",
"a.	c #711C05",
"b.	c #3C280C",
"c.	c #541E04",
"d.	c #191C0C",
"e.	c #0E2110",
"f.	c #75460A",
"g.	c #9B5003",
"h.	c #541605",
"i.	c #770000",
"j.	c #690100",
"k.	c #5E0B03",
"l.	c #26190A",
"m.	c #3C2B0B",
"n.	c #33270C",
"o.	c #0C1E0C",
"p.	c #7E4B07",
"q.	c #582806",
"r.	c #560F05",
"s.	c #583107",
"t.	c #101F0D",
"u.	c #2C250E",
"  . + @ . @ # . $ +   $ % & @ * $ * @ @ @ @ % . + =   - % @ .   ",
". % @   = % ; @ % > . ; @ + , ; ; % % @ @ # # @ - ; ; % @ @ @ * ",
"% . + #   @   % . % @ . + .   @ @ @ @ @ % * + . % @ % . @ % @ @ ",
"% ; ' ' % % ' ' ; ' ; ' ' ) % % ! ; ' ~ % ' ' + ) ; ' ; ) ' @ . ",
"% % * # @ % $ . % , % @   % > % @ % # { @ * $ # % % . % * - @ . ",
"@ . ; . .   ] @ # + @ @ > @ % * @ , > # @ @ > . % . ; = % $ . . ",
"^ % %   . @ + % % % @ / ( _ : % ; + @ @ @ $ % { * ; % % @ % @ @ ",
"% @ % @ @ # @ @ @ % < [ } | 1 2 3 4 @ % @ . % . @ @ % .   % @ @ ",
"@ % @ .   % @ % % @ % 5 6 7 8 9 0 a b c d . @ { & % @ > @ # % . ",
"% @ e % f . @ % @ ' . g h i j k l m n o p @ ; + % . %   ; ; % - ",
") e % % # e ; ; ; % ; ; ; q r s t u v w x % % @ % ; ' e % % @ . ",
"+ @ > = @ @ * .   . + . y z A B C D E F G H % . % . # @ # , = + ",
"* ; % @ . @ % . ) I @ % % J K L M N O P Q R @   * % % ; % @ @ . ",
"@   % $ + % @ % @ % @ . @ S T U V W X Y Z ` % @ @ % @ % @ @ + . ",
"+ % ; ; + * % ; % ' @ % ; +   . ;  ...+.@.#.$.; @ # ; % ; ' @ ^ ",
"% ; @ @ # ; ; + ; . % % % @ % ; ' %.&.*.=.-.;.>.e ; ; ; @ @ { . ",
"@ / @ . @   . * ] @ @ @ %   ,.'.).!.~.{.].^./.(.@ @ $ % @ * . % ",
"+   @ ,   % @ % @ @ % @ % @ _.:.<.[.}.|.1.2.3.4.  @ @ @ @ . % @ ",
"@ % ' ; + . % ; % ! @ % ; 5.6.7.8.9.0.a.% b.c.d.@ @ e.% ' ' @ = ",
"; I @ @ # ; % % ; $ % %   f.g.h.i.j.k.l.@ m.n.@ % ; % f @ @ { = ",
"% % % *   . * * @ @   * % o.p.q.r.s.t.. = # % &   * *   @ , . % ",
". % % @ * % ; @ ; % @ % @   = u.% ; % @ @ @ @   , ; ; % % @ @   ",
"  @ % . + @ {   @ % @ @ @ . / + % . % . % * % @ / @   @ @ $ + . ",
"; + . @ % @ # # % . # @ % % # > @ # # % & * @ @ > @ . @ # # . { ",
"@ . ; . .   ] @ # + @ @ > @ % * @ , > # @ @ > . % . ; = % $ . . ",
"^ % %   . @ + % % % @ / @   - % ; + @ @ @ $ % { * ; % % @ % @ @ ",
"% # % @ + $ @ % . % . . ; @ + . % . @ %   . %   % $ % . @ % @ . ",
"% ; ; ' @ ; ' ' ; ' ' ' ' ; + ; ' ' ) ' + ' ) % ) ) ' ; ; ;   * ",
"+ % . . / @ # * @ . % . % @ ] # @ # # * { * # & > @ * @ * , @ { ",
". @ % @ = @ % @ % % @ % @ @ @ @ % . % # . % @ { # @ ; . % . * { ",
". %   @ { @ %   % @ @ @ % @ . % @ ; @ @   . % . . % @ % @ % @ @ ",
"% @ ; f ; $ @ % @ e.# % ; % @ $ % @ % ; % @ ; ; + . % @ % ; % , "};
