/* XPM */
static char * coll_xpm[] = {
"32 32 209 2",
"  	c #0B200D",
". 	c #0A1E0C",
"+ 	c #0C210E",
"@ 	c #0B1F0D",
"# 	c #0B1E0D",
"$ 	c #0A1E0D",
"% 	c #0C200E",
"& 	c #0A1F0C",
"* 	c #0A1D0C",
"= 	c #091D0B",
"- 	c #091C0B",
"; 	c #0D210F",
"> 	c #0C1F0E",
", 	c #0C210F",
"' 	c #091D0C",
") 	c #1B271B",
"! 	c #393B32",
"~ 	c #38392F",
"{ 	c #202B20",
"] 	c #0E2210",
"^ 	c #0D220F",
"/ 	c #2A332A",
"( 	c #474D47",
"_ 	c #2F3429",
": 	c #2A3124",
"< 	c #464B44",
"[ 	c #3A403A",
"} 	c #0E2010",
"| 	c #4F5550",
"1 	c #1A271B",
"2 	c #1D291D",
"3 	c #2C352D",
"4 	c #0F200F",
"5 	c #424944",
"6 	c #1E291F",
"7 	c #0B1F0E",
"8 	c #182517",
"9 	c #4B4A40",
"0 	c #212913",
"a 	c #58584C",
"b 	c #4D4D3E",
"c 	c #3C3B24",
"d 	c #444639",
"e 	c #363A2B",
"f 	c #091E0C",
"g 	c #0B200E",
"h 	c #262A12",
"i 	c #55513D",
"j 	c #4A4117",
"k 	c #5F5738",
"l 	c #604E0E",
"m 	c #604E0F",
"n 	c #5D5331",
"o 	c #493F13",
"p 	c #24290E",
"q 	c #0E200C",
"r 	c #0F1F0C",
"s 	c #353414",
"t 	c #655C37",
"u 	c #775D0D",
"v 	c #82631E",
"w 	c #7C6024",
"x 	c #836525",
"y 	c #84641B",
"z 	c #765B0C",
"A 	c #57490E",
"B 	c #2A2B0C",
"C 	c #0D1F0D",
"D 	c #20270D",
"E 	c #544711",
"F 	c #796226",
"G 	c #95690E",
"H 	c #A76E0F",
"I 	c #9C6512",
"J 	c #A06811",
"K 	c #95690D",
"L 	c #7B5F0D",
"M 	c #4F430C",
"N 	c #1B240D",
"O 	c #0D200F",
"P 	c #10220F",
"Q 	c #32300D",
"R 	c #6A5510",
"S 	c #896720",
"T 	c #A96F0F",
"U 	c #9F6512",
"V 	c #6E4A18",
"W 	c #704B19",
"X 	c #A36712",
"Y 	c #A86E0F",
"Z 	c #8E670F",
"` 	c #68530E",
" .	c #2E2E0E",
"..	c #0B1E0C",
"+.	c #3C370F",
"@.	c #745A11",
"#.	c #966D21",
"$.	c #A66A0F",
"%.	c #99702C",
"&.	c #AE863E",
"*.	c #AE863B",
"=.	c #986F2B",
"-.	c #A76B0F",
";.	c #9A6A0E",
">.	c #73580D",
",.	c #38340E",
"'.	c #0F220F",
").	c #0F200D",
"!.	c #3A350C",
"~.	c #755912",
"{.	c #986D21",
"].	c #B5720F",
"^.	c #B47F31",
"/.	c #C68C39",
"(.	c #C78F3D",
"_.	c #B37B2B",
":.	c #B4720E",
"<.	c #9E6A0E",
"[.	c #73570C",
"}.	c #37330E",
"|.	c #0C1E0C",
"1.	c #0C200F",
"2.	c #0F200E",
"3.	c #302F0D",
"4.	c #6A5211",
"5.	c #916B28",
"6.	c #B1710F",
"7.	c #B57318",
"8.	c #BC8833",
"9.	c #BD8A39",
"0.	c #B67316",
"a.	c #B0710F",
"b.	c #95660E",
"c.	c #68500D",
"d.	c #2D2C0C",
"e.	c #0D200E",
"f.	c #0C1F0D",
"g.	c #1E250C",
"h.	c #534512",
"i.	c #7F6630",
"j.	c #A16B0E",
"k.	c #B3710F",
"l.	c #97651A",
"m.	c #9A6719",
"n.	c #B3720F",
"o.	c #9F6B0E",
"p.	c #7E5D0E",
"q.	c #4F420D",
"r.	c #1C250D",
"s.	c #11230E",
"t.	c #393716",
"u.	c #6A5C33",
"v.	c #7E5E0F",
"w.	c #94670E",
"x.	c #966611",
"y.	c #986711",
"z.	c #93670E",
"A.	c #7D5E0E",
"B.	c #5D4B0F",
"C.	c #2F2F0F",
"D.	c #32331A",
"E.	c #594F35",
"F.	c #53460F",
"G.	c #69530E",
"H.	c #70570D",
"I.	c #70570E",
"J.	c #68530D",
"K.	c #53450D",
"L.	c #31300D",
"M.	c #14220E",
"N.	c #20291D",
"O.	c #54544B",
"P.	c #22270D",
"Q.	c #34320E",
"R.	c #3D370D",
"S.	c #3C370D",
"T.	c #33300C",
"U.	c #20260C",
"V.	c #10200D",
"W.	c #1E291E",
"X.	c #504E45",
"Y.	c #0E200E",
"Z.	c #10210D",
"`.	c #0E210E",
" +	c #0F2211",
".+	c #1E2A1F",
"++	c #505049",
"@+	c #0E210F",
"#+	c #0E2110",
"$+	c #1F2A1F",
"%+	c #4D4E46",
"&+	c #1F2B1F",
"*+	c #4A4E49",
"=+	c #0A1F0D",
"-+	c #1D271D",
";+	c #4D524E",
">+	c #4A504B",
",+	c #494F4A",
"'+	c #4C514B",
")+	c #1D281E",
"!+	c #494E49",
"~+	c #1F2A1E",
"{+	c #48463D",
"]+	c #212B1F",
"^+	c #4D4E47",
"/+	c #4A4F4A",
"(+	c #484D48",
"_+	c #132214",
":+	c #283229",
"  . + @ . @ # . . +   $ % & @ * $ * @ @ @ @ % . + =   - % @ .   ",
". % @   = % ; @ % > . , @ + ' , ; % % @ @ # # @ - ; ; % @ @ @ * ",
"% . + #   @   % . % @ . + .   @ ) ! ~ { % * + . % @ % . @ % @ @ ",
"% ; ] ] % % ] ] ; ] ; ] ] ^ % / ( _ : < [ ] ] + ^ ; ] ; ^ ] @ . ",
"% % * # @ % . . % ' % @   % } | 1 2 3 4 5 6 $ # % % . % * - @ . ",
"@ . ; . .   7 @ # + @ @ > @ 8 9 0 a b c d e > . % . ; = % $ . . ",
"f % %   . @ + % % % # % @ g h i j k l m n o p q * ; % % @ % @ @ ",
"% @ % @ @ # @ @ @ % @ . + r s t u v w x y z A B C @ % . @ % @ @ ",
"@ % @ .   % @ % > @ % @ % D E F G H I J H K L M N % @ > @ # % . ",
"% @ O % , . @ % @ ] . > P Q R S T U V W X Y Z `  ...%   ; ; % - ",
"^ O % % # O ; ; ; % ; ; P +.@.#.$.%.&.*.=.-.;.>.,.'.] O % % @ . ",
"+ @ > = @ @ * .   . + . ).!.~.{.].^./.(._.:.<.[.}.|.# @ # ' = + ",
"* ; % @ . @ % . ^ 1.@ % 2.3.4.5.6.7.8.9.0.a.b.c.d.e.% ; % @ @ . ",
"@   % . + % @ % @ % @ . f.g.h.i.j.k.l.m.n.o.p.q.r.% @ % @ @ + . ",
"+ % ; ; + * % ; % ] @ % ; s.t.u.v.w.x.y.z.A.B.C.).# ; % ; ] @ f ",
"% ; @ @ # ; ; + ; . % % % f.D.E.F.G.H.I.J.K.L.M.O ; ; ; @ @ & . ",
"@ g @ . @   . * 7 @ @ @ %   N.O.P.Q.R.S.T.U.V.@ @ @ . % @ . . % ",
"+   @ *   % @ % @ @ % @ % @ W.X.e.Y.Z.).`...@ .   @ @ @ @ . % @ ",
"@ % ] ; + . % ; %  +@ % ; % .+++@+% ; ; % ; ] + @ @ #+% ] ] @ = ",
"; 1.@ @ # ; % % ; . % %   % $+%+ +; @ % @ #   @ % ; % + @ @ & = ",
"% % % *   . * * @ @   * % f &+*+> * @ . = # % =+  * *   @ * . % ",
". % % @ * % ; @ ; % @ % @   -+;+; ; % @ @ @ @   ' ; ; % % @ @   ",
"  @ % . + @ .   @ % @ @ 7 . W.>+e.. % . % * % @ % @   @ @ # + . ",
"; + . @ % @ # # % . # @ % % W.,+> # # % =+* @ @ > @ . @ # # . & ",
"@ . ; . .   7 @ # + @ @ > @ $+'+% * > # @ @ > . % . ; = % $ . . ",
"f % %   . @ + % % % # % @ g )+!+; + @ @ @ $ % & * ; % % @ % @ @ ",
"% # % @ + $ @ % . % . . ; @ ~+{+% . @ %   . %   % $ % . @ % @ . ",
"% ; ; ] @ ; ] ] ; ] ] ] ] ; ]+^+ +] ^ ] + ] ^ % ^ ^ ] ; ; ;   * ",
"+ % . . % @ # * @ . % . % @ { /+> # # * & * # @ > @ * @ * * @ & ",
". @ % @ = @ % @ % % @ % @ @ $+(+O . % # . % @ & # @ ; . % . * & ",
". %   @ & @ %   % @ @ @ % @ _+:+> ; @ @   . % . . % @ % @ % @ @ ",
"% @ ; , ; $ @ % @ #+# % ; % @ # % @ % ; % @ ; ; + . % @ % ; % ' "};
