/* XPM */
static char * exit_xpm[] = {
"32 32 544 2",
"  	c #565962",
". 	c #6A6E78",
"+ 	c #6C707B",
"@ 	c #61656F",
"# 	c #585C65",
"$ 	c #6E7179",
"% 	c #9C9DA1",
"& 	c #858991",
"* 	c #404349",
"= 	c #505258",
"- 	c #878991",
"; 	c #B6B8BF",
"> 	c #92959C",
", 	c #9DA0A8",
"' 	c #A0A3AC",
") 	c #6F747F",
"! 	c #7C808A",
"~ 	c #9EA2AB",
"{ 	c #4F525B",
"] 	c #9DA0A7",
"^ 	c #B3B6BD",
"/ 	c #7A7D84",
"( 	c #4A4D53",
"_ 	c #4C4F56",
": 	c #7A7D87",
"< 	c #9B9DA2",
"[ 	c #666972",
"} 	c #636771",
"| 	c #6F737E",
"1 	c #7B7F89",
"2 	c #777A84",
"3 	c #555860",
"4 	c #37393F",
"5 	c #2E3035",
"6 	c #323439",
"7 	c #34363C",
"8 	c #4C4F57",
"9 	c #5D606A",
"0 	c #9EA1A9",
"a 	c #BDC0C6",
"b 	c #7C7F87",
"c 	c #45484F",
"d 	c #4B4E56",
"e 	c #989BA4",
"f 	c #A9ACB5",
"g 	c #757A86",
"h 	c #838791",
"i 	c #A7AAB2",
"j 	c #8D9099",
"k 	c #4D5059",
"l 	c #464950",
"m 	c #8D9098",
"n 	c #BEC0C6",
"o 	c #92969E",
"p 	c #5C6069",
"q 	c #484B53",
"r 	c #303237",
"s 	c #393B41",
"t 	c #5B5E66",
"u 	c #43464D",
"v 	c #303338",
"w 	c #36393F",
"x 	c #44474E",
"y 	c #4D4F58",
"z 	c #242529",
"A 	c #4D5058",
"B 	c #535760",
"C 	c #757983",
"D 	c #52555D",
"E 	c #A3A6AE",
"F 	c #B2B4BC",
"G 	c #717681",
"H 	c #838690",
"I 	c #B0B2BA",
"J 	c #9699A1",
"K 	c #51545D",
"L 	c #585B64",
"M 	c #777B85",
"N 	c #50535C",
"O 	c #4C4F58",
"P 	c #4B4F57",
"Q 	c #292B30",
"R 	c #44474F",
"S 	c #44464E",
"T 	c #35383D",
"U 	c #222327",
"V 	c #3C3F46",
"W 	c #383A40",
"X 	c #464951",
"Y 	c #53575F",
"Z 	c #7E818A",
"` 	c #3C3E45",
" .	c #60646E",
"..	c #5F636D",
"+.	c #3D4047",
"@.	c #575A64",
"#.	c #6D717B",
"$.	c #70747F",
"%.	c #A4A7AF",
"&.	c #737782",
"*.	c #B1B3BB",
"=.	c #999DA5",
"-.	c #6E727D",
";.	c #848792",
">.	c #676B75",
",.	c #52555E",
"'.	c #454850",
").	c #53565F",
"!.	c #7C7F88",
"~.	c #565963",
"{.	c #3F4249",
"].	c #36383E",
"^.	c #24262A",
"/.	c #32353A",
"(.	c #878B95",
"_.	c #90949E",
":.	c #868B95",
"<.	c #70747E",
"[.	c #35373D",
"}.	c #494C54",
"|.	c #6C707C",
"1.	c #7C818D",
"2.	c #A4A7B0",
"3.	c #A8ABB3",
"4.	c #646771",
"5.	c #757882",
"6.	c #AAADB5",
"7.	c #9DA0AA",
"8.	c #808490",
"9.	c #666B76",
"0.	c #43454C",
"a.	c #3A3C42",
"b.	c #777C86",
"c.	c #868A95",
"d.	c #8E929C",
"e.	c #838892",
"f.	c #676B76",
"g.	c #33363B",
"h.	c #212326",
"i.	c #33363C",
"j.	c #2F3136",
"k.	c #51545C",
"l.	c #70737A",
"m.	c #82858C",
"n.	c #5E616B",
"o.	c #5C606A",
"p.	c #686C74",
"q.	c #969AA2",
"r.	c #9B9FA8",
"s.	c #9397A1",
"t.	c #9DA0A9",
"u.	c #595C66",
"v.	c #686B74",
"w.	c #9CA0A9",
"x.	c #9B9EA7",
"y.	c #92959D",
"z.	c #60636C",
"A.	c #5B5F69",
"B.	c #555962",
"C.	c #595C65",
"D.	c #7B7E86",
"E.	c #686B72",
"F.	c #484B52",
"G.	c #313339",
"H.	c #34373D",
"I.	c #282A2F",
"J.	c #33353B",
"K.	c #696D78",
"L.	c #828690",
"M.	c #777B84",
"N.	c #A2A4AD",
"O.	c #A5A8B0",
"P.	c #ABADB4",
"Q.	c #90939C",
"R.	c #6F727C",
"S.	c #5D616B",
"T.	c #595D66",
"U.	c #5D606B",
"V.	c #767A83",
"W.	c #8C8F98",
"X.	c #B1B3BA",
"Y.	c #A0A3AB",
"Z.	c #6F737C",
"`.	c #6B6F7A",
" +	c #888B95",
".+	c #6F737D",
"++	c #575B64",
"@+	c #35383E",
"#+	c #292A2F",
"$+	c #3C3F45",
"%+	c #2C2E34",
"&+	c #474A51",
"*+	c #54575E",
"=+	c #53565D",
"-+	c #AEB1B8",
";+	c #797C85",
">+	c #5B5F68",
",+	c #6E737E",
"'+	c #6F747E",
")+	c #8F929B",
"!+	c #9FA2AB",
"~+	c #ADB0B7",
"{+	c #ABAEB6",
"]+	c #9B9EA8",
"^+	c #8A8E97",
"/+	c #727681",
"(+	c #6D717D",
"_+	c #5B5E67",
":+	c #888C94",
"<+	c #565960",
"[+	c #42444B",
"}+	c #303238",
"|+	c #3C3E44",
"1+	c #28292E",
"2+	c #313338",
"3+	c #313439",
"4+	c #45474F",
"5+	c #2A2C30",
"6+	c #90939B",
"7+	c #A2A6AF",
"8+	c #888B94",
"9+	c #656973",
"0+	c #888C96",
"a+	c #9A9EA7",
"b+	c #B7B9C0",
"c+	c #CCCED3",
"d+	c #EBEBEE",
"e+	c #E9EAEC",
"f+	c #C6C8CE",
"g+	c #838792",
"h+	c #494C53",
"i+	c #90949C",
"j+	c #44464C",
"k+	c #26282C",
"l+	c #4E515A",
"m+	c #26272B",
"n+	c #6D717A",
"o+	c #2E3036",
"p+	c #3F4248",
"q+	c #8B8E97",
"r+	c #A8ABB2",
"s+	c #747881",
"t+	c #62666E",
"u+	c #9396A0",
"v+	c #9396A1",
"w+	c #E0E2E4",
"x+	c #DCDDE1",
"y+	c #EFF0F1",
"z+	c #ECECEE",
"A+	c #D8D9DD",
"B+	c #D6D8DB",
"C+	c #979AA3",
"D+	c #9295A0",
"E+	c #80848C",
"F+	c #94979F",
"G+	c #32343A",
"H+	c #787B85",
"I+	c #6C6F78",
"J+	c #61656E",
"K+	c #2D2F34",
"L+	c #565961",
"M+	c #45474E",
"N+	c #B4B7BE",
"O+	c #9EA1AA",
"P+	c #A1A4AD",
"Q+	c #D8DADD",
"R+	c #DDDEE1",
"S+	c #EEEEF0",
"T+	c #E6E7E9",
"U+	c #E3E4E6",
"V+	c #CBCCD1",
"W+	c #999CA6",
"X+	c #5F6169",
"Y+	c #36393E",
"Z+	c #53565E",
"`+	c #4A4D55",
" @	c #35373C",
".@	c #33353A",
"+@	c #5F636C",
"@@	c #61646E",
"#@	c #383B41",
"$@	c #666A75",
"%@	c #4E5159",
"&@	c #3A3D43",
"*@	c #A9ACB3",
"=@	c #BDBFC5",
"-@	c #C9CBCF",
";@	c #B4B6BD",
">@	c #A7A9B1",
",@	c #C0C2C8",
"'@	c #E4E5E8",
")@	c #DADBDE",
"!@	c #C1C3C8",
"~@	c #A3A6AF",
"{@	c #ACAEB6",
"]@	c #BABCC3",
"^@	c #CACBD0",
"/@	c #B7BAC1",
"(@	c #999DA4",
"_@	c #3B3E44",
":@	c #2F3137",
"<@	c #50535B",
"[@	c #636772",
"}@	c #393C42",
"|@	c #27292D",
"1@	c #686B73",
"2@	c #7D828C",
"3@	c #404249",
"4@	c #3A3C43",
"5@	c #83868F",
"6@	c #DEE0E2",
"7@	c #BBBDC3",
"8@	c #9C9FA8",
"9@	c #C2C4C9",
"0@	c #DEDFE2",
"a@	c #B2B4BB",
"b@	c #34363B",
"c@	c #878B96",
"d@	c #55585E",
"e@	c #1F2024",
"f@	c #61646B",
"g@	c #8A8E98",
"h@	c #5E616A",
"i@	c #757881",
"j@	c #95989F",
"k@	c #BCBEC4",
"l@	c #C3C5CA",
"m@	c #898C95",
"n@	c #8A8D96",
"o@	c #D1D2D7",
"p@	c #C0C2C7",
"q@	c #9DA1A8",
"r@	c #7D8089",
"s@	c #2A2B2F",
"t@	c #3D3F46",
"u@	c #4D4F55",
"v@	c #202124",
"w@	c #4D5056",
"x@	c #484A50",
"y@	c #1D1E22",
"z@	c #43454D",
"A@	c #8A8D97",
"B@	c #979AA2",
"C@	c #94979E",
"D@	c #868A93",
"E@	c #3B3D44",
"F@	c #1A1B1E",
"G@	c #2C2D33",
"H@	c #686C76",
"I@	c #555861",
"J@	c #5B5E65",
"K@	c #18191C",
"L@	c #57595F",
"M@	c #727680",
"N@	c #585A62",
"O@	c #2A2B30",
"P@	c #636770",
"Q@	c #81848E",
"R@	c #767983",
"S@	c #373940",
"T@	c #62666F",
"U@	c #747780",
"V@	c #9C9EA5",
"W@	c #909299",
"X@	c #767A84",
"Y@	c #3E4148",
"Z@	c #575B63",
"`@	c #787C84",
" #	c #80848F",
".#	c #5D6068",
"+#	c #2D2E33",
"@#	c #232529",
"##	c #676A72",
"$#	c #797D86",
"%#	c #393B3F",
"&#	c #18191B",
"*#	c #7A7D86",
"=#	c #616570",
"-#	c #212226",
";#	c #62656E",
">#	c #868A94",
",#	c #91949E",
"'#	c #94979D",
")#	c #A4A6AB",
"!#	c #9497A0",
"~#	c #6C6E76",
"{#	c #787C86",
"]#	c #AAABB0",
"^#	c #93969D",
"/#	c #93979F",
"(#	c #80838E",
"_#	c #5D6169",
":#	c #282A2E",
"<#	c #61646F",
"[#	c #858892",
"}#	c #1D1F22",
"|#	c #474951",
"1#	c #4F525A",
"2#	c #26272C",
"3#	c #4C4E57",
"4#	c #7D808A",
"5#	c #8D909A",
"6#	c #707278",
"7#	c #42444A",
"8#	c #81848D",
"9#	c #595B63",
"0#	c #1F2023",
"a#	c #27282D",
"b#	c #646873",
"c#	c #42454C",
"d#	c #52565F",
"e#	c #3E4047",
"f#	c #24252A",
"g#	c #323338",
"h#	c #545761",
"i#	c #626671",
"j#	c #696D77",
"k#	c #4B4D55",
"l#	c #6B6E77",
"m#	c #5B5F66",
"n#	c #5A5D66",
"o#	c #2F3035",
"p#	c #292B2F",
"q#	c #4A4D56",
"r#	c #1E1F23",
"s#	c #585B65",
"t#	c #565A63",
"u#	c #1D1E21",
"v#	c #4A4E56",
"w#	c #6B6F7B",
"x#	c #666A74",
"y#	c #7E838E",
"z#	c #747882",
"A#	c #656974",
"B#	c #202125",
"C#	c #1F2124",
"D#	c #545760",
"E#	c #222428",
"F#	c #3B3E45",
"G#	c #212327",
"H#	c #63656C",
"I#	c #4A4D54",
"J#	c #4E525A",
"K#	c #5A5E67",
"L#	c #1B1C1F",
"M#	c #1B1C20",
"N#	c #41434A",
"O#	c #7F838E",
"P#	c #7B7F8A",
"Q#	c #1C1D20",
"R#	c #5A5E68",
"S#	c #55585F",
"T#	c #5B5D64",
"U#	c #46484F",
"V#	c #212225",
"W#	c #50545C",
"X#	c #42454B",
"Y#	c #838790",
"Z#	c #7A7E87",
"`#	c #17181B",
" $	c #17191B",
".$	c #25262A",
"+$	c #101012",
"@$	c #474A52",
"#$	c #161719",
"$$	c #2B2D32",
"%$	c #41444B",
"&$	c #666A73",
"*$	c #50545D",
"=$	c #3F4148",
"-$	c #51555E",
";$	c #16171A",
">$	c #131316",
",$	c #383A41",
"'$	c #151618",
")$	c #40434A",
"!$	c #545861",
"~$	c #111113",
"{$	c #0D0E0F",
"]$	c #5C5F67",
"^$	c #41444A",
"/$	c #646872",
"($	c #80848E",
"_$	c #585B63",
":$	c #2D2F35",
"<$	c #5E626B",
"[$	c #737882",
"}$	c #7D818C",
"|$	c #7C818B",
"1$	c #111214",
"2$	c #090A0B",
"3$	c #0E0F11",
"4$	c #27292E",
"5$	c #323339",
"6$	c #56585F",
"7$	c #898C93",
"8$	c #9C9FA7",
"9$	c #60646D",
"0$	c #6B6F79",
"a$	c #9FA2A9",
"b$	c #92949B",
"c$	c #4E5057",
"d$	c #0A0A0C",
"e$	c #121214",
"f$	c #0E0F10",
"g$	c #0F1012",
"h$	c #51555D",
"i$	c #1A1B1D",
"j$	c #2C2D32",
"k$	c #373A40",
"l$	c #1E1F22",
"m$	c #101113",
"n$	c #141517",
"o$	c #777B86",
"p$	c #3D4046",
"q$	c #7A7E89",
"r$	c #767A85",
"s$	c #585C66",
"t$	c #494B53",
"u$	c #7C808B",
"v$	c #757984",
"w$	c #202225",
"x$	c #787D87",
"y$	c #2F3036",
"z$	c #191A1D",
"A$	c #868991",
"B$	c #52565D",
"C$	c #5C5F69",
"D$	c #1C1E21",
"E$	c #34373C",
"F$	c #3E4147",
"G$	c #1C1D21",
"H$	c #4D5159",
"I$	c #2E2F34",
"J$	c #5A5D67",
"K$	c #2E2F35",
"L$	c #1F2125",
"M$	c #25272B",
"N$	c #36383F",
"O$	c #4B4E57",
"P$	c #52565E",
"Q$	c #6D707A",
"R$	c #6B6E78",
"S$	c #2C2E32",
"  . + @ # $ % & * = - ; >   , ' ) ! ~ > { ] ^ / ( _ : < [ # } | ",
"1 2 3 4 5 6 7 8 9 0 a b c d e f g h i j k l m n o p q 4 r r s t ",
"u v w x y x z u A B | C D k E F G H I J K L M + N O P Q R A S T ",
"U V W X Y Z `  ...+.@.#.h $.%.F &.H *.=.-.;.>.,.'...@ ).!.~.{.].",
"^./.T 4 | (._.:.<.8 [.}.|.1.2.3.4.5.6.7.8.9.0.a.8 b.c.d.e.f.g.w ",
"h.g.i.j.k.l.m.n.  o.N p.q.r.s.t.u.v.w.s.x.y.z.Y A.B.C.D.E.F.G.H.",
"I.r i.J.R # K.L.>.M.N.O.P.Q.R.S.# T.U.V.W.X.' Y.Z.`. +.+++V @+7 ",
"#+j.w $+%+&+*+=+H -+;+>+,+'+)+!+~+{+]+^+/+(+_+:+6.: &+<+[+}+|+w ",
"1+2+3+9 4+^.5+6+7+8+[+9+0+a+b+c+d+e+f+b+r.g+o.h+i+2.0 j+k+l+  v ",
"z m+z.n+o+p+q+r+s+d t+u+v+2.w+x+y+z+A+B+C+D+_.L A E+3.F+H.G+H+D ",
"j.I+J+K+].N L+M+@+l.N+O+7.P+Q+R+S+T+U+V+W+O+P+X.X+Y+'.Z+`+ @.@>.",
"+@@@6 3+#@$@%@&@R *@=@-@;@3.>@,@'@)@!@~@{@]@^@/@(@_@:@<@[@H.r }@",
") }.|@g.1@2@3@r 4@>.5@=@)@6@7@8@Y.0 O+9@0@B+a@#.} .@b@u c@d@b@^.",
"..e@r Q f@g@5 5+J.].` h@i@j@k@l@m@n@o@p@q@r@>+].#@5 s@t@_.u@5 K+",
"5 v@w@x@@@J+^.y@z@l [.5 J.>+A@=@B@C@b+D@t+V .@s l+E@F@G@H@I@J@b@",
"K@e@L@v.M@N@O@K+P@Q@R@%@S@6 T@U@V@W@X@_+J.Y@Z@`@ #.#+#@###P@$#%#",
"&#U L+*#=#T. @-#r ;#>#,#'#)#!#!.$ ~#{#] ]#^#/#(#_#:#e@j.<#~.[#0.",
"}#&@|#[ 1#<#S 2#z k 3#z.M.4#5#6#&+7#b 0+8#5.9#%@}.0#a#{.b#u . c#",
"}.n.d#t@e#o.,.I.-#f#U g#h#i#j#k#l#m#n#}  .O o#-#p#-#z q#U.G+A q#",
",.K+4 r#5 s#t#e#u#-#0#}#v#w#o.x#y#z#[@S.A#{.F@B#B#C#4@D#~.E#1+6 ",
"F#-#G#H#I#J#K#~.].L#M#G.N#d ++O#(.h P#d#F.{.:#Q#u#3@~.R#l S#T#v@",
"U L#N U#V#-#W#s#I@@+&#Y@X#c Y : Y#Y#Z#A d 3@F#`#e#B.u.N  $.$%@`+",
"+$J.@$M#Q##$#$N#).{ &@$$$+%$}.t#&$H@*$8 4+a.$$=$-$K X B#;$M#r#k ",
">$}+D#` ,$^.'$;$t@Y B.B.d#u )$5 q#q#a#X &+I@~.!$).@+~$#$a#` _@I@",
"{$&#J#N s#o.S.]$^$-#+./$O#($/+_$:$7 <$[$}$|$..w h.( X+<$o.t#I@l ",
"1$2$3$4$h.1+G+k#D#O 5$C#6$7$8$9$|@G.0$a$b$x@y@W { Z+c$].k+h.2#d$",
"{.x d J.e$f$g$C#t@h$..d#j.i$8 D j$4 d#x C#k$B.S.l+s l$m${$n$+.}.",
"c#K @ o$D L#z p$E@x t#q$r$,.d T.r V s$x t$u$v$-$c#_@e#K+w$K#x$S.",
";$^.O@c T.y$)$[.B#:#z$|+A$B$`+C$7 c#C$u I#A$K+D$Q e@E$e#@+K#p$5+",
"t@`+++@#F$J.{.j.x e#7 G$@$$$H$C$j.` n.x I$@$L#Y+p+=$Q#%$k$].r J$",
"W y@6 u#h$K$%@` [.r#.$:#N b@l N#{.x c#* G+{ |@L$M$[.N$}.4@'.z j.",
"k+H.5 5 p$u#V q O$e#J.k+P$W }@Q$_#R$z.s [.d#E#7 =$J#q a..$4@S$j."};
