/* XPM */
static char * npc2_xpm[] = {
"32 32 271 2",
"  	c #0B200D",
". 	c #0A1E0C",
"+ 	c #0C210E",
"@ 	c #0B1F0D",
"# 	c #0B1E0D",
"$ 	c #0A1E0D",
"% 	c #0C200E",
"& 	c #0A1F0C",
"* 	c #0A1D0C",
"= 	c #091D0B",
"- 	c #091C0B",
"; 	c #0D210F",
"> 	c #0C1F0E",
", 	c #0C210F",
"' 	c #091D0C",
") 	c #0E2210",
"! 	c #0D220F",
"~ 	c #0F2211",
"{ 	c #0E2310",
"] 	c #0B1F0E",
"^ 	c #091E0C",
"/ 	c #0A1C0C",
"( 	c #091809",
"_ 	c #071507",
": 	c #0A190A",
"< 	c #0B1C0C",
"[ 	c #071508",
"} 	c #042E25",
"| 	c #035548",
"1 	c #036759",
"2 	c #035D50",
"3 	c #043D32",
"4 	c #091F10",
"5 	c #08190B",
"6 	c #03473A",
"7 	c #008370",
"8 	c #00A791",
"9 	c #00A590",
"0 	c #017E6C",
"a 	c #054237",
"b 	c #092013",
"c 	c #0D200F",
"d 	c #0A1C0B",
"e 	c #0A1B0B",
"f 	c #142115",
"g 	c #135345",
"h 	c #018C78",
"i 	c #00A892",
"j 	c #009C87",
"k 	c #056E5C",
"l 	c #142A1E",
"m 	c #0B1A0A",
"n 	c #07190E",
"o 	c #05140F",
"p 	c #372B10",
"q 	c #3E4630",
"r 	c #066455",
"s 	c #007C6A",
"t 	c #0E7F6C",
"u 	c #3C7262",
"v 	c #5A594B",
"w 	c #37342F",
"x 	c #101A15",
"y 	c #091B0D",
"z 	c #06170D",
"A 	c #021D17",
"B 	c #05251F",
"C 	c #53421C",
"D 	c #62542B",
"E 	c #355440",
"F 	c #32624E",
"G 	c #4A7663",
"H 	c #818579",
"I 	c #9B9486",
"J 	c #69665F",
"K 	c #25352F",
"L 	c #031812",
"M 	c #091A0C",
"N 	c #08160B",
"O 	c #0C211C",
"P 	c #454846",
"Q 	c #504141",
"R 	c #462315",
"S 	c #5E4319",
"T 	c #745920",
"U 	c #755C22",
"V 	c #87795A",
"W 	c #A19989",
"X 	c #7A7162",
"Y 	c #524C3F",
"Z 	c #1F362D",
"` 	c #012D26",
" .	c #041913",
"..	c #071007",
"+.	c #272323",
"@.	c #A6A1A1",
"#.	c #BE9998",
"$.	c #8E211E",
"%.	c #5F2418",
"&.	c #4F3918",
"*.	c #554620",
"=.	c #635A45",
"-.	c #89877B",
";.	c #9A9687",
">.	c #696C63",
",.	c #255147",
"'.	c #00473C",
").	c #03251E",
"!.	c #091909",
"~.	c #081107",
"{.	c #271415",
"].	c #976867",
"^.	c #D46865",
"/.	c #C82E26",
"(.	c #801B18",
"_.	c #29453A",
":.	c #1D6F5C",
"<.	c #247361",
"[.	c #437E6E",
"}.	c #5D8A79",
"|.	c #3E7969",
"1.	c #126D5C",
"2.	c #005346",
"3.	c #04261F",
"4.	c #091309",
"5.	c #210B0C",
"6.	c #681111",
"7.	c #AC281D",
"8.	c #AE2D23",
"9.	c #6C1717",
"0.	c #226658",
"a.	c #01A08B",
"b.	c #00A38D",
"c.	c #007B69",
"d.	c #005F51",
"e.	c #004137",
"f.	c #041C16",
"g.	c #0A1A0B",
"h.	c #0B200E",
"i.	c #0A1B0C",
"j.	c #13100A",
"k.	c #3B1812",
"l.	c #995925",
"m.	c #9C5B26",
"n.	c #3D2F26",
"o.	c #1E5D4F",
"p.	c #2C806D",
"q.	c #2C8270",
"r.	c #258272",
"s.	c #147A69",
"t.	c #265B4C",
"u.	c #0F3E34",
"v.	c #02231C",
"w.	c #07180D",
"x.	c #241C0E",
"y.	c #9D6A28",
"z.	c #A16D29",
"A.	c #27281E",
"B.	c #7A5F39",
"C.	c #C18A49",
"D.	c #C29C77",
"E.	c #A6A7A2",
"F.	c #6D6A5A",
"G.	c #AA916A",
"H.	c #574D38",
"I.	c #06150A",
"J.	c #0F2210",
"K.	c #1E1B0C",
"L.	c #955E1F",
"M.	c #996020",
"N.	c #572D18",
"O.	c #AD6935",
"P.	c #E59247",
"Q.	c #EAA570",
"R.	c #E6B998",
"S.	c #C6905C",
"T.	c #C29063",
"U.	c #5D4630",
"V.	c #0B1D0C",
"W.	c #0E2110",
"X.	c #0C200F",
"Y.	c #1C1A0A",
"Z.	c #A3692D",
"`.	c #CB863E",
" +	c #A06D3B",
".+	c #8C6546",
"++	c #9F7B55",
"@+	c #AC7E51",
"#+	c #C78544",
"$+	c #BF7D3F",
"%+	c #874C28",
"&+	c #5F321C",
"*+	c #2B1E0F",
"=+	c #1E1B0B",
"-+	c #AD7036",
";+	c #F1A150",
">+	c #C49254",
",+	c #306E5B",
"'+	c #167966",
")+	c #36705D",
"!+	c #63503C",
"~+	c #5D4531",
"{+	c #402618",
"]+	c #723D23",
"^+	c #3F2112",
"/+	c #091A0B",
"(+	c #0A1F0D",
"_+	c #151508",
":+	c #814A23",
"<+	c #BB773A",
"[+	c #9D7A4A",
"}+	c #226756",
"|+	c #006B5B",
"1+	c #046555",
"2+	c #0F5245",
"3+	c #0C483D",
"4+	c #28231A",
"5+	c #5B301B",
"6+	c #322010",
"7+	c #09170A",
"8+	c #1E1207",
"9+	c #2E261B",
"0+	c #25392E",
"a+	c #03453B",
"b+	c #005044",
"c+	c #004E42",
"d+	c #051814",
"e+	c #151408",
"f+	c #0E1C0B",
"g+	c #241F0A",
"h+	c #313A27",
"i+	c #314B39",
"j+	c #274939",
"k+	c #054339",
"l+	c #0C4539",
"m+	c #1E4336",
"n+	c #233224",
"o+	c #2C2510",
"p+	c #151B0A",
"q+	c #0B1508",
"r+	c #41310F",
"s+	c #5A4619",
"t+	c #56441B",
"u+	c #403516",
"v+	c #0D1810",
"w+	c #1D1E11",
"x+	c #3D3217",
"y+	c #4A3916",
"z+	c #523E14",
"A+	c #251E09",
"B+	c #091C0C",
"C+	c #0B1609",
"D+	c #3D300F",
"E+	c #544115",
"F+	c #443511",
"G+	c #191A08",
"H+	c #1C190A",
"I+	c #3D3012",
"J+	c #503F15",
"K+	c #4E3D14",
"L+	c #221E0A",
"M+	c #091B0B",
"N+	c #18210D",
"O+	c #222810",
"P+	c #1A220D",
"Q+	c #0C1F0D",
"R+	c #0F1F0D",
"S+	c #19210D",
"T+	c #21260E",
"U+	c #20260F",
"V+	c #101F0D",
"  . + @ . @ # . . +   $ % & @ * $ * @ @ @ @ % . + =   - % @ .   ",
". % @   = % ; @ % > . , @ + ' , ; % % @ @ # # @ - ; ; % @ @ @ * ",
"% . + #   @   % . % @ . + .   @ @ @ @ @ % * + . % @ % . @ % @ @ ",
"% ; ) ) % % ) ) ; ) ; ) ) ! % % ~ ; ) { % ) ) + ! ; ) ; ! ) @ . ",
"% % * # @ % . . % ' % @   % > % @ % # & @ * $ # % % . % * - @ . ",
"@ . ; . .   ] @ # + @ @ > @ % * @ * > # @ @ > . % . ; = % $ . . ",
"^ % %   . @ + % % % # / ( ( _ : < % @ @ @ $ % & * ; % % @ % @ @ ",
"% @ % @ @ # @ @ @ % $ [ } | 1 2 3 4 @ % @ . % . @ @ % . @ % @ @ ",
"@ % @ .   % @ % > @ % 5 6 7 8 9 0 a b . + . @ & @ % @ > @ # % . ",
"% @ c % , . @ % @ ) d e f g h i j k l m / # ; + % . %   ; ; % - ",
"! c % % # c ; ; ; # n o p q r s t u v w x y % @ % ; ) c % % @ . ",
"+ @ > = @ @ * * $ z A B C D E F G H I J K L M . % . # @ # ' = + ",
"* ; % @ . @ % . N O P Q R S T U V W X Y Z `  .e * % % ; % @ @ . ",
"@   % . + % @ @ ..+.@.#.$.%.&.*.=.-.;.>.,.'.).!.@ % @ % @ @ + . ",
"+ % ; ; + * % % ~.{.].^./.(._.:.<.[.}.|.1.2.3.e @ # ; % ; ) @ ^ ",
"% ; @ @ # ; ; % 4.5.6.7.8.9.0.a.b.b.j c.d.e.f.g.c ; ; ; @ @ & . ",
"@ h.@ . @   . * i.j.k.l.m.n.o.p.q.r.s.t.u.v.w.* @ @ . % @ . . % ",
"+   @ *   % @ % @ e x.y.z.A.B.C.D.E.F.G.H.I.* .   @ @ @ @ . % @ ",
"@ % ) ; + . % ; % J.K.L.M.N.O.P.Q.R.S.T.U.V.) + @ @ W.% ) ) @ = ",
"; X.@ @ # ; % % ; . Y.Z.`. +.+++@+#+$+%+&+*+* @ % ; % + @ @ & = ",
"% % % *   . * * @ # =+-+;+>+,+'+)+!+~+{+]+^+/+(+  * *   @ * . % ",
". % % @ * % ; @ ; > _+:+<+[+}+|+1+2+3+4+5+6+-   ' ; ; % % @ @   ",
"  @ % . + @ .   @ % 7+8+9+0+a+b+b+c+e.d+e+f+% @ % @   @ @ # + . ",
"; + . @ % @ # # % . e g+h+i+j+k+l+m+n+o+p+/ @ @ > @ . @ # # . & ",
"@ . ; . .   ] @ # + q+r+s+t+u+v+w+x+y+z+A+B+> . % . ; = % $ . . ",
"^ % %   . @ + % % % C+D+E+F+G+g.H+I+J+K+L+M+% & * ; % % @ % @ @ ",
"% # % @ + $ @ % . % * N+O+P+Q+* R+S+T+U+V+. %   % $ % . @ % @ . ",
"% ; ; ) @ ; ) ) ; ) ) ) ) ; + ; ) ) ! ) + ) ! % ! ! ) ; ; ;   * ",
"+ % . . % @ # * @ . % . % @ > # @ # # * & * # @ > @ * @ * * @ & ",
". @ % @ = @ % @ % % @ % @ @ @ @ % . % # . % @ & # @ ; . % . * & ",
". %   @ & @ %   % @ @ @ % @ . % @ ; @ @   . % . . % @ % @ % @ @ ",
"% @ ; , ; $ @ % @ W.# % ; % @ # % @ % ; % @ ; ; + . % @ % ; % ' "};
