/* XPM */
static char *_9148e820b714f16fecd488e5cefc85fF5dGa9eeD9qDdGQ1[] = {
/* columns rows colors chars-per-pixel */
"34 34 46 1 ",
"  c #001502",
". c #011305",
"X c #021704",
"o c #021706",
"O c #041606",
"+ c #031805",
"@ c #031807",
"# c #041906",
"$ c #051709",
"% c #061808",
"& c #061B08",
"* c #061B0A",
"= c #071C09",
"- c #071C0B",
"; c #081A0A",
": c #091E0B",
"> c #081A0C",
", c #081D0C",
"< c #0A1C0C",
"1 c #091E0D",
"2 c #0D1F0F",
"3 c #0C1E10",
"4 c #0D1D12",
"5 c #0B200D",
"6 c #0B200F",
"7 c #0D220F",
"8 c #0C2110",
"9 c #0E2010",
"0 c #0E2312",
"q c #0F2411",
"w c #0F2413",
"e c #112313",
"r c #112613",
"t c #122714",
"y c #122716",
"u c #132815",
"i c #132817",
"p c #152A17",
"a c #142918",
"s c #152A19",
"d c #162B18",
"f c #172C19",
"g c #172C1B",
"h c #182D1C",
"j c #1B2D1F",
"k c #1B301D",
/* pixels */
"1111e>57w7rrr777555:;;;OO;;2;222::",
"1111s;:77::77r55:577;;O;;;;2><<<;:",
"*111j:#:5::5rr75:57721;;3;2;;;2<*#",
">*>3e;#1w77itpw55557e7;:7222;;2<*@",
"$.*338**-185881w77,,w@ #5::;;::77-",
"*3y1*;1*-3www8885--555::5==:#:#:-5",
"1281o781,1ww8*11-*-w8rr7:#####:275",
"15811sse1181*ooo@1wp8pr5=+###:7rss",
",188wkgw1:888**@*17i7q7:@+# +=7fjg",
",,1sgiw7-1wy88y1**-#777:::++++:qp8",
"*-1hh-,,18yw81y1*o@@7rrr7==+##==:1",
"@,181@@*1ww5*o*@**:#5rdpp#+::::+##",
"@*,,@@@-1wyy8-y1****:5777==#  #: #",
"@@*w5w8588wyw88,*11*:7::#+#+ =7rr5",
"@8iagpy5-*1881,*-888rr5# ##+#:rpsi",
"8wa8iwy1*@88,@*@-88rdpr7:#=# #7rry",
"aww8858888ww,@@,-118titi7::= =55:8",
"aw8111,,,8w88o8,-*1877qqw55-=-577*",
"aw8515o@o,,818881**85558755:#5771@",
"yw8,@-,,,*@,ws,81*11r7w55-:5=575**",
"o$*>8,o@@@@,8w,,*-8w8w88888at7--1o",
"**;28*@,,,,@*,,,111-38,*,@8wt7:-**",
";;2>8*,,88,@o@,,15-@w8,,,o-8w8:-**",
";;;;,,@*,,,,,,,,351,ay5@@@,585,-**",
";OO;;1:*@*,,,,8,88yyy8-@@,,,,@,-11",
"OO;;o:81*o@*,,,,,8as88,*,8,*@@@,18",
";;;;-8s8,*o,,,,,8wawww888,,,@@,88y",
"OO;;-5ie8,88,,,8ww88ww888,@@*,188y",
"O$;*1*81,,,88wwwwwaaswwya8,@*8aw*8",
";;221-**@@@,85wasayyw888w,8118w8**",
"22215*1188858w8waw888,,18,8w811,*1",
"228383hsaawy8w@,3,,8,*@,1,whw,,18h",
";229esjgyy8888**1**81***1yjgy1*8sh",
"$:2e8ypy71188y888818111118sp8**8ys"
};
