/* XPM */
static char * Run_Body_112_0013_con prato_xpm[] = {
"32 32 140 2",
"  	c #0B200D",
". 	c #0A1E0C",
"+ 	c #0C210E",
"@ 	c #0B1F0D",
"# 	c #0B1E0D",
"$ 	c #0A1E0D",
"% 	c #0C200E",
"& 	c #0A1F0D",
"* 	c #0A1D0C",
"= 	c #091D0B",
"- 	c #091C0B",
"; 	c #0D210F",
"> 	c #0C1F0E",
", 	c #091D0C",
"' 	c #0E2210",
") 	c #0D220F",
"! 	c #0F2211",
"~ 	c #0E2310",
"{ 	c #0A1F0C",
"] 	c #0B1F0E",
"^ 	c #091E0C",
"/ 	c #0B200E",
"( 	c #0C1F0D",
"_ 	c #472D0A",
": 	c #2F270D",
"< 	c #191F0C",
"[ 	c #241E0C",
"} 	c #59190A",
"| 	c #5B190A",
"1 	c #753404",
"2 	c #4E2008",
"3 	c #59380E",
"4 	c #0C1F0C",
"5 	c #191E0C",
"6 	c #211D0D",
"7 	c #331809",
"8 	c #6F1304",
"9 	c #711403",
"0 	c #3C1E09",
"a 	c #6C1105",
"b 	c #991500",
"c 	c #5F0302",
"d 	c #5D0F08",
"e 	c #0D200F",
"f 	c #0C210F",
"g 	c #34200F",
"h 	c #971106",
"i 	c #9E0502",
"j 	c #BD0201",
"k 	c #980200",
"l 	c #441C06",
"m 	c #621807",
"n 	c #7F1503",
"o 	c #7B1E03",
"p 	c #341F0D",
"q 	c #611908",
"r 	c #811406",
"s 	c #831105",
"t 	c #761604",
"u 	c #5F1805",
"v 	c #401A08",
"w 	c #7C1909",
"x 	c #371E0D",
"y 	c #0E200D",
"z 	c #8E1105",
"A 	c #980000",
"B 	c #9B0200",
"C 	c #6E0E04",
"D 	c #541304",
"E 	c #4E1103",
"F 	c #4C1605",
"G 	c #900703",
"H 	c #611508",
"I 	c #091E0B",
"J 	c #0C200F",
"K 	c #950201",
"L 	c #A50000",
"M 	c #B80000",
"N 	c #940000",
"O 	c #890000",
"P 	c #550403",
"Q 	c #520E05",
"R 	c #AD1704",
"S 	c #552109",
"T 	c #8A0301",
"U 	c #B00301",
"V 	c #870200",
"W 	c #800300",
"X 	c #3F1006",
"Y 	c #111C0C",
"Z 	c #441B11",
"` 	c #521E09",
" .	c #451708",
"..	c #800000",
"+.	c #9B0000",
"@.	c #6D0100",
"#.	c #5C1D02",
"$.	c #690702",
"%.	c #17200E",
"&.	c #191E0D",
"*.	c #3B0602",
"=.	c #3C0402",
"-.	c #520504",
";.	c #5B0801",
">.	c #4F0000",
",.	c #2C1E0D",
"'.	c #5B2006",
").	c #39110A",
"!.	c #850705",
"~.	c #7D0301",
"{.	c #540702",
"].	c #582F0A",
"^.	c #49320D",
"/.	c #3C1809",
"(.	c #8A0100",
"_.	c #9B2800",
":.	c #991900",
"<.	c #870300",
"[.	c #61330C",
"}.	c #4F310C",
"|.	c #720902",
"1.	c #8B0300",
"2.	c #9D2F00",
"3.	c #700301",
"4.	c #5E300B",
"5.	c #7B4307",
"6.	c #2C290E",
"7.	c #0E2110",
"8.	c #572E07",
"9.	c #6E0200",
"0.	c #5F0703",
"a.	c #5D1F04",
"b.	c #2C220E",
"c.	c #1A230E",
"d.	c #3E1607",
"e.	c #5C2B09",
"f.	c #5A3108",
"g.	c #673F0A",
"h.	c #3D2809",
"i.	c #5D3B0B",
"  . + @ . @ # . $ +   $ % & @ * $ * @ @ @ @ % . + =   - % @ .   ",
". % @   = % ; @ % > . ; @ + , ; ; % % @ @ # # @ - ; ; % @ @ @ * ",
"% . + #   @   % . % @ . + .   @ @ @ @ @ % * + . % @ % . @ % @ @ ",
"% ; ' ' % % ' ' ; ' ; ' ' ) % % ! ; ' ~ % ' ' + ) ; ' ; ) ' @ . ",
"% % * # @ % $ . % , % @   % > % @ % # { @ * $ # % % . % * - @ . ",
"@ . ; . .   ] @ # + @ @ > @ % * @ , > # @ @ > . % . ; = % $ . . ",
"^ % %   . @ + % % % @ / @   - % ; + @ @ ( _ : { * ; % % @ % @ @ ",
"% @ % @ @ # @ @ @ % @ . + .     < [ } | 1 2 3 4 @ @ % .   % @ @ ",
"@ % @ .   % @ % % @ %   5 6 7 8 9 0 a b c d @ { & % @ > @ # % . ",
"% @ e % f . @ % @ ' . > g h i j k l m n o @ ; + % . %   ; ; % - ",
") e % % # e ; ; ; % ; p q r s t u v w x y % % @ % ; ' e % % @ . ",
"+ @ > = @ @ * .   . + z A B C D E F G H I * % . % . # @ # , = + ",
"* ; % @ . @ % . ) J @ K L M N O P Q R S * @ @   * % % ; % @ @ . ",
"@   % $ + % @ % @ % ( T U V W X Y Z ` . % . % @ @ % @ % @ @ + . ",
"+ % ; ; + * % ; % '  ...+.@.#.$.%.@ ; ) @ % ' ; @ # ; % ; ' @ ^ ",
"% ; @ @ # ; ; + ; . &.*.=.-.;.>.,.e % % @ @ @ % e ; ; ; @ @ { . ",
"@ / @ . @   . * ] @ @ '.).!.~.{.].^.@   . . @ @ @ @ $ % @ * . % ",
"+   @ ,   % @ % @ @ % /.(._.:.<.[.}.@ @ + . @ .   @ @ @ @ . % @ ",
"@ % ' ; + . % ; % ! @ % |.1.2.3.4.5.6.; % ; ' + @ @ 7.% ' ' @ = ",
"; J @ @ # ; % % ; $ % % 8.9.0.a.b.c.@ % @ #   @ % ; % f @ @ { = ",
"% % % *   . * * @ @   * % d.e.f.g.* @ . = # % &   * *   @ , . % ",
". % % @ * % ; @ ; % @ % @   h.i.% ; % @ @ @ @   , ; ; % % @ @   ",
"  @ % . + @ {   @ % @ @ @ . / + % . % . % * % @ / @   @ @ $ + . ",
"; + . @ % @ # # % . # @ % % # > @ # # % & * @ @ > @ . @ # # . { ",
"@ . ; . .   ] @ # + @ @ > @ % * @ , > # @ @ > . % . ; = % $ . . ",
"^ % %   . @ + % % % @ / @   - % ; + @ @ @ $ % { * ; % % @ % @ @ ",
"% # % @ + $ @ % . % . . ; @ + . % . @ %   . %   % $ % . @ % @ . ",
"% ; ; ' @ ; ' ' ; ' ' ' ' ; + ; ' ' ) ' + ' ) % ) ) ' ; ; ;   * ",
"+ % . . / @ # * @ . % . % @ ] # @ # # * { * # & > @ * @ * , @ { ",
". @ % @ = @ % @ % % @ % @ @ @ @ % . % # . % @ { # @ ; . % . * { ",
". %   @ { @ %   % @ @ @ % @ . % @ ; @ @   . % . . % @ % @ % @ @ ",
"% @ ; f ; $ @ % @ 7.# % ; % @ $ % @ % ; % @ ; ; + . % @ % ; % , "};
