/* XPM */
static char * Run_Body_180_0001_con prato_xpm[] = {
"32 32 143 2",
"  	c #0B200D",
". 	c #0A1E0C",
"+ 	c #0C210E",
"@ 	c #0B1F0D",
"# 	c #0B1E0D",
"$ 	c #0A1E0D",
"% 	c #0C200E",
"& 	c #0A1F0D",
"* 	c #0A1D0C",
"= 	c #091D0B",
"- 	c #091C0B",
"; 	c #0D210F",
"> 	c #0C1F0E",
", 	c #091D0C",
"' 	c #0E2210",
") 	c #0D220F",
"! 	c #0F2211",
"~ 	c #0E2310",
"{ 	c #0A1F0C",
"] 	c #0B1F0E",
"^ 	c #091E0C",
"/ 	c #0B200E",
"( 	c #191F0C",
"_ 	c #191E0C",
": 	c #0D200E",
"< 	c #0D200F",
"[ 	c #0C210F",
"} 	c #14200E",
"| 	c #321C0A",
"1 	c #331E0D",
"2 	c #70180A",
"3 	c #441D0C",
"4 	c #261C09",
"5 	c #231D0B",
"6 	c #3C1D08",
"7 	c #8F1205",
"8 	c #B40202",
"9 	c #801305",
"0 	c #3B1C06",
"a 	c #761507",
"b 	c #591C0C",
"c 	c #741708",
"d 	c #910902",
"e 	c #811303",
"f 	c #671F0A",
"g 	c #A50B02",
"h 	c #472008",
"i 	c #8B0C02",
"j 	c #9A0400",
"k 	c #960100",
"l 	c #2B1808",
"m 	c #0C200F",
"n 	c #271909",
"o 	c #930000",
"p 	c #850100",
"q 	c #970100",
"r 	c #741202",
"s 	c #8F0A02",
"t 	c #680F02",
"u 	c #8E0100",
"v 	c #7D0201",
"w 	c #6A0100",
"x 	c #2E1207",
"y 	c #501609",
"z 	c #651608",
"A 	c #24140B",
"B 	c #3C0304",
"C 	c #3E0803",
"D 	c #50170F",
"E 	c #751107",
"F 	c #970706",
"G 	c #6A1A04",
"H 	c #53160A",
"I 	c #391508",
"J 	c #1A170B",
"K 	c #41120A",
"L 	c #912301",
"M 	c #511A0A",
"N 	c #601709",
"O 	c #980800",
"P 	c #710B07",
"Q 	c #1C1A0D",
"R 	c #25200F",
"S 	c #5F0904",
"T 	c #6D0E04",
"U 	c #AA1F08",
"V 	c #631A01",
"W 	c #540D03",
"X 	c #650A04",
"Y 	c #1E210F",
"Z 	c #760E04",
"` 	c #9B1200",
" .	c #761807",
"..	c #6C1609",
"+.	c #8A3904",
"@.	c #691503",
"#.	c #3D2C0D",
"$.	c #48190A",
"%.	c #760706",
"&.	c #35120A",
"*.	c #5D2709",
"=.	c #4D1705",
"-.	c #54100C",
";.	c #810101",
">.	c #421A0B",
",.	c #713908",
"'.	c #7D0904",
").	c #6E1105",
"!.	c #2F1D0C",
"~.	c #723405",
"{.	c #56350B",
"].	c #5E1407",
"^.	c #6F0101",
"/.	c #680000",
"(.	c #421809",
"_.	c #552607",
":.	c #640000",
"<.	c #820302",
"[.	c #4D1607",
"}.	c #4F2F09",
"|.	c #874309",
"1.	c #251D0C",
"2.	c #2E290C",
"3.	c #551308",
"4.	c #5A0000",
"5.	c #591C05",
"6.	c #391D0B",
"7.	c #5A0100",
"8.	c #740203",
"9.	c #3B1708",
"0.	c #55370C",
"a.	c #6F3F07",
"b.	c #53190A",
"c.	c #530E04",
"d.	c #7F4806",
"e.	c #24210C",
"f.	c #4E200A",
"g.	c #7E0000",
"h.	c #7C3F05",
"i.	c #0E2110",
"j.	c #2C280E",
"k.	c #33260C",
"l.	c #724407",
"  . + @ . @ # . $ +   $ % & @ * $ * @ @ @ @ % . + =   - % @ .   ",
". % @   = % ; @ % > . ; @ + , ; ; % % @ @ # # @ - ; ; % @ @ @ * ",
"% . + #   @   % . % @ . + .   @ @ @ @ @ % * + . % @ % . @ % @ @ ",
"% ; ' ' % % ' ' ; ' ; ' ' ) % % ! ; ' ~ % ' ' + ) ; ' ; ) ' @ . ",
"% % * # @ % $ . % , % @   % > % @ % # { @ * $ # % % . % * - @ . ",
"@ . ; . .   ] @ # + @ @ > @ % * @ , > # @ @ > . % . ; = % $ . . ",
"^ % %   . @ + % % % @ / @   - % ; + @ @ @ $ % { * ; % % @ % @ @ ",
"% @ % @ @ # @ @ @ % @ . + .     @ @ @ % @ . % . @ @ % .   % @ @ ",
"@ % @ .   % @ % % @ %   % ( . % _ : @ @ + . @ { & % @ > @ # % . ",
"% @ < % [ . @ % @ ' . > } | 1 2 3 4 % ; @ @ ; + % . %   ; ; % - ",
") < % % # < ; ; ; % ; ; 5 6 7 8 9 0 a b   % % @ % ; ' < % % @ . ",
"+ @ > = @ @ * .   . + c d e f g h i j k l * % . % . # @ # , = + ",
"* ; % @ . @ % . ) m n o p q r s t u v w x y @   * % % ; % @ @ . ",
"@   % $ + % @ % @ z A B C D E F G H I J K L M @ @ % @ % @ @ + . ",
"+ % ; ; + * % ; N O P Q R S T U V W X Y Z `  .; @ # ; % ; ' @ ^ ",
"% ; @ @ # ; ; + ..+.@.#.$.%.&.*.=.-.;.>.,.'.).% < ; ; ; @ @ { . ",
"@ / @ . @   . * !.~.{.@ ].^./.(._.:.<.[.}.|.1.@ @ @ $ % @ * . % ",
"+   @ ,   % @ % @ 2.% @ 3.4.5.6.> 7.8.9.0.a.@ .   @ @ @ @ . % @ ",
"@ % ' ; + . % ; % ! @ % b.c.d.e.; f.g.h.% ; ' + @ @ i.% ' ' @ = ",
"; m @ @ # ; % % ; $ % %   % j.; ' k.l.: @ #   @ % ; % [ @ @ { = ",
"% % % *   . * * @ @   * % ^ + * @ * @ . = # % &   * *   @ , . % ",
". % % @ * % ; @ ; % @ % @   = % % ; % @ @ @ @   , ; ; % % @ @   ",
"  @ % . + @ {   @ % @ @ @ . / + % . % . % * % @ / @   @ @ $ + . ",
"; + . @ % @ # # % . # @ % % # > @ # # % & * @ @ > @ . @ # # . { ",
"@ . ; . .   ] @ # + @ @ > @ % * @ , > # @ @ > . % . ; = % $ . . ",
"^ % %   . @ + % % % @ / @   - % ; + @ @ @ $ % { * ; % % @ % @ @ ",
"% # % @ + $ @ % . % . . ; @ + . % . @ %   . %   % $ % . @ % @ . ",
"% ; ; ' @ ; ' ' ; ' ' ' ' ; + ; ' ' ) ' + ' ) % ) ) ' ; ; ;   * ",
"+ % . . / @ # * @ . % . % @ ] # @ # # * { * # & > @ * @ * , @ { ",
". @ % @ = @ % @ % % @ % @ @ @ @ % . % # . % @ { # @ ; . % . * { ",
". %   @ { @ %   % @ @ @ % @ . % @ ; @ @   . % . . % @ % @ % @ @ ",
"% @ ; [ ; $ @ % @ i.# % ; % @ $ % @ % ; % @ ; ; + . % @ % ; % , "};
