/* XPM */
static char * Run_Body_270_0001_con prato_xpm[] = {
"32 32 150 2",
"  	c #0B1F0D",
". 	c #0A1F0D",
"+ 	c #0D210F",
"@ 	c #0A1E0C",
"# 	c #0A1E0D",
"$ 	c #0B1E0D",
"% 	c #0C210E",
"& 	c #0A1D0C",
"* 	c #0C200E",
"= 	c #091C0B",
"- 	c #0B1F0E",
"; 	c #091D0B",
"> 	c #0B200D",
", 	c #091E0C",
"' 	c #0C1F0E",
") 	c #091D0C",
"! 	c #0B200E",
"~ 	c #0E2210",
"{ 	c #0E2310",
"] 	c #0D220F",
"^ 	c #0C210F",
"/ 	c #091C0C",
"( 	c #0A1F0C",
"_ 	c #0B1F0C",
": 	c #4F2F0B",
"< 	c #18210E",
"[ 	c #6E4009",
"} 	c #774307",
"| 	c #561B08",
"1 	c #721206",
"2 	c #4E1908",
"3 	c #391F09",
"4 	c #392008",
"5 	c #231E0B",
"6 	c #1A1F0D",
"7 	c #7B3D04",
"8 	c #691403",
"9 	c #5B2409",
"0 	c #921E02",
"a 	c #611708",
"b 	c #1D1B0A",
"c 	c #251C0C",
"d 	c #211D0C",
"e 	c #0D1E0D",
"f 	c #081C0B",
"g 	c #341F0E",
"h 	c #8D0D06",
"i 	c #6F1605",
"j 	c #741204",
"k 	c #5B0F07",
"l 	c #AB0702",
"m 	c #970E05",
"n 	c #401F0E",
"o 	c #1A1E0C",
"p 	c #0E2110",
"q 	c #681B08",
"r 	c #921004",
"s 	c #411405",
"t 	c #3A1A04",
"u 	c #5E1803",
"v 	c #801005",
"w 	c #990C03",
"x 	c #A30703",
"y 	c #611909",
"z 	c #0D200F",
"A 	c #43200E",
"B 	c #880F03",
"C 	c #310F08",
"D 	c #670502",
"E 	c #6D0C02",
"F 	c #860B04",
"G 	c #8D0B02",
"H 	c #691103",
"I 	c #671306",
"J 	c #0D200E",
"K 	c #2F1A0A",
"L 	c #0E1E0D",
"M 	c #4B1609",
"N 	c #8F0404",
"O 	c #B10000",
"P 	c #A40000",
"Q 	c #BC0000",
"R 	c #930502",
"S 	c #411D0C",
"T 	c #720D04",
"U 	c #9F0300",
"V 	c #9A0300",
"W 	c #6F0101",
"X 	c #610502",
"Y 	c #1C200E",
"Z 	c #46310D",
"` 	c #12200E",
" .	c #4C1407",
"..	c #740000",
"+.	c #760101",
"@.	c #3E0101",
"#.	c #6A0402",
"$.	c #58340A",
"%.	c #6C3D0A",
"&.	c #683307",
"*.	c #471809",
"=.	c #491A0A",
"-.	c #481B0B",
";.	c #411508",
">.	c #230C07",
",.	c #340706",
"'.	c #4F0703",
").	c #790000",
"!.	c #281A0B",
"~.	c #56330A",
"{.	c #653607",
"].	c #6D0C05",
"^.	c #900000",
"/.	c #911201",
"(.	c #A13900",
"_.	c #580503",
":.	c #400909",
"<.	c #5E0300",
"[.	c #640101",
"}.	c #3F0503",
"|.	c #161C0B",
"1.	c #0E210F",
"2.	c #4C190A",
"3.	c #751206",
"4.	c #780401",
"5.	c #911001",
"6.	c #790701",
"7.	c #860001",
"8.	c #7D0402",
"9.	c #5E0501",
"0.	c #3D0D05",
"a.	c #2E1E0D",
"b.	c #780504",
"c.	c #700101",
"d.	c #570402",
"e.	c #652403",
"f.	c #111D0C",
"g.	c #081D0A",
"h.	c #17200E",
"i.	c #530A03",
"j.	c #4D0E05",
"k.	c #5E1D06",
"l.	c #6B0000",
"m.	c #411E05",
"n.	c #6B410A",
"o.	c #5E2F08",
"p.	c #562307",
"q.	c #231C0B",
"r.	c #6D4208",
"s.	c #442C0B",
"  . + @   @ # @ @ +   $ %     & @ @   $ @ * * @ * = - & * @ ; > ",
"; +   @ , * *   * '   *   > ) + + * *     $ @ > ; + % * * #   @ ",
"* @ * & *     * @ *   $ *   !   >     # % @ * @ *   * @ *     > ",
"% + ~ + '   + ~ + { * + ~ * * * ~ + ] {   + { * * + ~ + ] ~ . @ ",
"^ * & #   * @ @ * ; '     %   '   % @   # & & ! '   @ * / = @ ) ",
"#   + @     ' $   +     - ( > )   # ' @ @ !   @ * @ + & * @ ; @ ",
"@ % * @ ( * * ' *   *     > = + * *       $     & % * * *       ",
"*   * &         . * _ : < @ !       *               * @ *       ",
"  ' > @     *   *   [ } | 1 2 3 4 5 >   *     ( @ % >   * @   @ ",
"* * + * + @ *     ~ @ 6 7 8 9 0 a b c d e * + ^   # * > + + * f ",
"* + * * ' + + + + * + + g h i j k l m n o ' * * * + ] p * * @ @ ",
"] .   = !   & & # $ % $ q r s t u v w x y & $ @ * & @ .   ) ; ] ",
"@ ~ z ! &   *   + *   + A B C D E F G H I J     & % > + + * $ @ ",
">   % @ !     $ * * @   ( K L M N O P Q R S   >   *     % @ * @ ",
"% + p ] + @ * z * ~   + + ] . $ T U V W X Y ~ ] @ $ z % + { $ ; ",
"* +       ~ * + % # z Z ` * * +  ...+.@.#.c   * * + ^ ]     ( @ ",
"*   ' ;   ! @ &   - $.%.&.*.=.-.;.>.,.'.).!.$   $ > &     @ & % ",
"%   * ; >   * @   > ~.{.].^./.(._.:.<.[.}.|.$ (   '   # * @ ! > ",
"* ^ ~ + + @ + + * ~ * 1.2.3.4.5.6.7.8.9.0.+ ~ + @   + * ~ ~   = ",
"z *       + * * *   z %   + a.b.c.d.[.e.f.$     * + * +     @ g.",
"* > ' = * ( & ; $ - * $   @ h.i.j.k.l.m.= $ # # > ) & #   ) & % ",
"# + * > & * +   + * ' +     & * n.o.p.q.  *     ) + % * * * $ > ",
"* @ % @ !     @   * @ *   (   % * r.s.@       >         * @ * @ ",
"+ % @       $ @ * @ @   > * # $     # > @ @       @ $ * $ - ; , ",
"#   + @     ' $   +     - ( > )   # ' @ @ !   @ * @ + & * @ ; @ ",
"@ % * @ ( * * ' *   *     > = + * *       $     & % * * *       ",
"%   '   *     > @ * @ $ * . % @ * # * ' ! # * * !   * @ *       ",
"* + ] +   * ] ~ + ~ + + ~ * * + ~ ~ + ~   + ~ * % ] ~ + + +   & ",
"^ ! $ ) > * & ; * & ' #     ' $     & @ @ & @   ' $ & * & = @ , ",
"& * * @ & @ * # * *       $     *   *   & * $ @ @   *   *   = ( ",
". *   @ > *   * *   * > * > @ *   *     % @   ( . *   '   $ * ! ",
"*   z * % @   *   ~ @ ' +       *   * +     + * * @ * > + + * @ "};
