/* XPM */
static char * Run_Body_112_0004_con prato_xpm[] = {
"32 32 142 2",
"  	c #0B200D",
". 	c #0A1E0C",
"+ 	c #0C210E",
"@ 	c #0B1F0D",
"# 	c #0B1E0D",
"$ 	c #0A1E0D",
"% 	c #0C200E",
"& 	c #0A1F0D",
"* 	c #0A1D0C",
"= 	c #091D0B",
"- 	c #091C0B",
"; 	c #0D210F",
"> 	c #0C1F0E",
", 	c #091D0C",
"' 	c #0E2210",
") 	c #0D220F",
"! 	c #0F2211",
"~ 	c #0E2310",
"{ 	c #0A1F0C",
"] 	c #0B1F0E",
"^ 	c #091E0C",
"/ 	c #0B200E",
"( 	c #121F0E",
"_ 	c #1E1D0B",
": 	c #161F0C",
"< 	c #171F0D",
"[ 	c #1C1A0A",
"} 	c #5E1703",
"| 	c #4D2208",
"1 	c #3E220A",
"2 	c #0D1F0D",
"3 	c #0D200F",
"4 	c #0C210F",
"5 	c #101F0D",
"6 	c #1D1E0E",
"7 	c #52190A",
"8 	c #9E0501",
"9 	c #BB0401",
"0 	c #940502",
"a 	c #612107",
"b 	c #40220F",
"c 	c #7D190A",
"d 	c #AD0701",
"e 	c #920D04",
"f 	c #7E1604",
"g 	c #451C05",
"h 	c #622607",
"i 	c #9A0703",
"j 	c #7A0F06",
"k 	c #6A3806",
"l 	c #673D0C",
"m 	c #26250E",
"n 	c #441A0A",
"o 	c #6B1306",
"p 	c #721004",
"q 	c #5D1206",
"r 	c #4F1503",
"s 	c #610E03",
"t 	c #4C0D01",
"u 	c #920803",
"v 	c #8A1703",
"w 	c #461407",
"x 	c #38260D",
"y 	c #432D0C",
"z 	c #0C200F",
"A 	c #811207",
"B 	c #B00000",
"C 	c #B30000",
"D 	c #840000",
"E 	c #700402",
"F 	c #3B1913",
"G 	c #81130A",
"H 	c #6A250B",
"I 	c #671005",
"J 	c #8F0100",
"K 	c #960201",
"L 	c #9A0000",
"M 	c #790302",
"N 	c #471307",
"O 	c #0C1E0C",
"P 	c #512D0A",
"Q 	c #723F08",
"R 	c #3C2E0D",
"S 	c #421005",
"T 	c #8C0100",
"U 	c #A20000",
"V 	c #810000",
"W 	c #751702",
"X 	c #810202",
"Y 	c #7F0B04",
"Z 	c #46230A",
"` 	c #683A0A",
" .	c #33290C",
"..	c #351E0D",
"+.	c #740903",
"@.	c #401A0B",
"#.	c #530904",
"$.	c #580302",
"%.	c #430501",
"&.	c #4D1008",
"*.	c #871502",
"=.	c #9A1200",
"-.	c #8E0000",
";.	c #6F0F07",
">.	c #1A200D",
",.	c #381507",
"'.	c #680100",
").	c #610602",
"!.	c #810201",
"~.	c #550803",
"{.	c #3F0A06",
"].	c #660303",
"^.	c #A32C00",
"/.	c #891900",
"(.	c #7D1201",
"_.	c #683606",
":.	c #502105",
"<.	c #520000",
"[.	c #790200",
"}.	c #710103",
"|.	c #770302",
"1.	c #1A1D0C",
"2.	c #582607",
"3.	c #7A1A02",
"4.	c #7B0100",
"5.	c #642B09",
"6.	c #7C4706",
"7.	c #2D1E0A",
"8.	c #6C0000",
"9.	c #610601",
"0.	c #5D0301",
"a.	c #660602",
"b.	c #38270C",
"c.	c #0E2110",
"d.	c #11200E",
"e.	c #582508",
"f.	c #5F2B05",
"g.	c #660000",
"h.	c #3F180A",
"i.	c #36280C",
"j.	c #704509",
"k.	c #2E1B0B",
"  . + @ . @ # . $ +   $ % & @ * $ * @ @ @ @ % . + =   - % @ .   ",
". % @   = % ; @ % > . ; @ + , ; ; % % @ @ # # @ - ; ; % @ @ @ * ",
"% . + #   @   % . % @ . + .   @ @ @ @ @ % * + . % @ % . @ % @ @ ",
"% ; ' ' % % ' ' ; ' ; ' ' ) % % ! ; ' ~ % ' ' + ) ; ' ; ) ' @ . ",
"% % * # @ % $ . % , % @   % > % @ % # { @ * $ # % % . % * - @ . ",
"@ . ; . .   ] @ # + @ @ > @ % * @ , > # @ @ > . % . ; = % $ . . ",
"^ % %   . @ + % % % @ / @   - % ; + @ @ @ $ % { * ; % % @ % @ @ ",
"% @ % @ @ # @ @ @ % @ . + .   ( _ : @ % @ . % . @ @ % .   % @ @ ",
"@ % @ .   % @ % % @ %   % < [ } | 1 2 @ + . @ { & % @ > @ # % . ",
"% @ 3 % 4 . @ % @ ' . 5 6 7 8 9 0 a b ; @ @ ; + % . %   ; ; % - ",
") 3 % % # 3 ; ; ; % ; ; c d e f g h i j k l m @ % ; ' 3 % % @ . ",
"+ @ > = @ @ * .   . + n o p q r s t u v w x y . % . # @ # , = + ",
"* ; % @ . @ % . ) z @ A B B C D E F G H * @ @   * % % ; % @ @ . ",
"@   % $ + % @ % @ % @ I J K L M N O P Q R . % @ @ % @ % @ @ + . ",
"+ % ; ; + * % ; % ' @ S T U V W X Y Z `  .% ' ; @ # ; % ; ' @ ^ ",
"% ; @ @ # ; ; + ..+.@.#.$.%.&.*.=.-.;.>.@ @ @ % 3 ; ; ; @ @ { . ",
"@ / @ . @   . * ,.'.).!.~.{.].^./.(._.  . . @ @ @ @ $ % @ * . % ",
"+   @ ,   % @ % :.<.[.}.|.1.2.3.4.5.6.@ + . @ .   @ @ @ @ . % @ ",
"@ % ' ; + . % ; 7.8.9.0.a.% / # 1.b.; ; % ; ' + @ @ c.% ' ' @ = ",
"; z @ @ # ; % % d.e.f.g.h.% % ; ' ; @ % @ #   @ % ; % 4 @ @ { = ",
"% % % *   . * * @ i.j.k.% ^ + * @ * @ . = # % &   * *   @ , . % ",
". % % @ * % ; @ ; % @ % @   = % % ; % @ @ @ @   , ; ; % % @ @   ",
"  @ % . + @ {   @ % @ @ @ . / + % . % . % * % @ / @   @ @ $ + . ",
"; + . @ % @ # # % . # @ % % # > @ # # % & * @ @ > @ . @ # # . { ",
"@ . ; . .   ] @ # + @ @ > @ % * @ , > # @ @ > . % . ; = % $ . . ",
"^ % %   . @ + % % % @ / @   - % ; + @ @ @ $ % { * ; % % @ % @ @ ",
"% # % @ + $ @ % . % . . ; @ + . % . @ %   . %   % $ % . @ % @ . ",
"% ; ; ' @ ; ' ' ; ' ' ' ' ; + ; ' ' ) ' + ' ) % ) ) ' ; ; ;   * ",
"+ % . . / @ # * @ . % . % @ ] # @ # # * { * # & > @ * @ * , @ { ",
". @ % @ = @ % @ % % @ % @ @ @ @ % . % # . % @ { # @ ; . % . * { ",
". %   @ { @ %   % @ @ @ % @ . % @ ; @ @   . % . . % @ % @ % @ @ ",
"% @ ; 4 ; $ @ % @ c.# % ; % @ $ % @ % ; % @ ; ; + . % @ % ; % , "};
