/* XPM */
static char * Run_Body_180_0016_con prato_xpm[] = {
"32 32 141 2",
"  	c #0B200D",
". 	c #0A1E0C",
"+ 	c #0C210E",
"@ 	c #0B1F0D",
"# 	c #0B1E0D",
"$ 	c #0A1E0D",
"% 	c #0C200E",
"& 	c #0A1F0D",
"* 	c #0A1D0C",
"= 	c #091D0B",
"- 	c #091C0B",
"; 	c #0D210F",
"> 	c #0C1F0E",
", 	c #091D0C",
"' 	c #0E2210",
") 	c #0D220F",
"! 	c #0F2211",
"~ 	c #0E2310",
"{ 	c #0A1F0C",
"] 	c #0B1F0E",
"^ 	c #091E0C",
"/ 	c #0B200E",
"( 	c #291F0C",
"_ 	c #0C1F0D",
": 	c #151F0D",
"< 	c #2D1D0A",
"[ 	c #261C09",
"} 	c #471E0D",
"| 	c #74180A",
"1 	c #301E0B",
"2 	c #0D200F",
"3 	c #0C210F",
"4 	c #691A0B",
"5 	c #3D1A04",
"6 	c #641908",
"7 	c #B10503",
"8 	c #A50401",
"9 	c #4C1C08",
"0 	c #4B1A09",
"a 	c #65180A",
"b 	c #A90401",
"c 	c #880D02",
"d 	c #51200A",
"e 	c #A40603",
"f 	c #67200C",
"g 	c #561904",
"h 	c #7E0602",
"i 	c #A00602",
"j 	c #4A1A0A",
"k 	c #231D0C",
"l 	c #311F0E",
"m 	c #4E0902",
"n 	c #6D0100",
"o 	c #750B03",
"p 	c #7E1001",
"q 	c #810E02",
"r 	c #5F1705",
"s 	c #990300",
"t 	c #7B0201",
"u 	c #900000",
"v 	c #580A03",
"w 	c #561A0B",
"x 	c #6B0D05",
"y 	c #26100A",
"z 	c #1A170B",
"A 	c #211B0D",
"B 	c #850A07",
"C 	c #910503",
"D 	c #590F04",
"E 	c #54130E",
"F 	c #380B03",
"G 	c #310806",
"H 	c #592707",
"I 	c #7D1A05",
"J 	c #351D0C",
"K 	c #900B02",
"L 	c #992000",
"M 	c #531808",
"N 	c #4F1507",
"O 	c #811906",
"P 	c #971C0B",
"Q 	c #5C1A01",
"R 	c #591E03",
"S 	c #5B0702",
"T 	c #361909",
"U 	c #823701",
"V 	c #892E07",
"W 	c #611608",
"X 	c #22200E",
"Y 	c #852603",
"Z 	c #690903",
"` 	c #653609",
" .	c #6D0D05",
"..	c #7A0503",
"+.	c #5A1605",
"@.	c #4F1904",
"#.	c #571204",
"$.	c #630A05",
"%.	c #6F1107",
"&.	c #772309",
"*.	c #7D1704",
"=.	c #421E0D",
"-.	c #864805",
";.	c #3F180A",
">.	c #680A04",
",.	c #7B0102",
"'.	c #4D0D05",
").	c #12220F",
"!.	c #440D06",
"~.	c #710504",
"{.	c #6E0D05",
"].	c #2D1C0B",
"^.	c #1A1E0D",
"/.	c #58350B",
"(.	c #5A1806",
"_.	c #7F0000",
":.	c #560E04",
"<.	c #2E1A0A",
"[.	c #690101",
"}.	c #620A04",
"|.	c #512507",
"1.	c #6C0100",
"2.	c #532305",
"3.	c #34270C",
"4.	c #401206",
"5.	c #6A0401",
"6.	c #4C190A",
"7.	c #770000",
"8.	c #411708",
"9.	c #13200E",
"0.	c #2B1F0E",
"a.	c #0E2110",
"b.	c #0C200F",
"c.	c #1E230D",
"d.	c #6E3707",
"e.	c #522408",
"f.	c #321F0D",
"g.	c #44330E",
"h.	c #51350A",
"i.	c #7F4D09",
"j.	c #21200B",
"  . + @ . @ # . $ +   $ % & @ * $ * @ @ @ @ % . + =   - % @ .   ",
". % @   = % ; @ % > . ; @ + , ; ; % % @ @ # # @ - ; ; % @ @ @ * ",
"% . + #   @   % . % @ . + .   @ @ @ @ @ % * + . % @ % . @ % @ @ ",
"% ; ' ' % % ' ' ; ' ; ' ' ) % % ! ; ' ~ % ' ' + ) ; ' ; ) ' @ . ",
"% % * # @ % $ . % , % @   % > % @ % # { @ * $ # % % . % * - @ . ",
"@ . ; . .   ] @ # + @ @ > @ % * @ , > # @ @ > . % . ; = % $ . . ",
"^ % %   . @ + % % % @ / @   - % ; + @ @ @ $ % { * ; % % @ % @ @ ",
"% @ % @ @ # @ @ @ % @ . + . ( _ @ : _ % @ . % . @ @ % .   % @ @ ",
"@ % @ .   % @ % % @ %   % < [ } | 1 _ @ + . @ { & % @ > @ # % . ",
"% @ 2 % 3 . @ % @ ' . > 4 5 6 7 8 9 0 ; @ @ ; + % . %   ; ; % - ",
") 2 % % # 2 ; ; ; % ; a b c d e f g h i j % % @ % ; ' 2 % % @ . ",
"+ @ > = @ @ * .   k l m n o p q r s t u v * % . % . # @ # , = + ",
"* ; % @ . @ % . ) w x y z A B C D E F G H I _   * % % ; % @ @ . ",
"@   % $ + % @ % J K L M @ N O P Q R S T U V W @ @ % @ % @ @ + . ",
"+ % ; ; + * % ; X Y Z ` ;  ...+.@.#.$.%.&.*.=.; @ # ; % ; ' @ ^ ",
"% ; @ @ # ; ; + ; -.;.% % >.,.'.).!.~.{.].^.@ % 2 ; ; ; @ @ { . ",
"@ / @ . @   . * ] /.@ @ % (._.:.. <.[.}.. . @ @ @ @ $ % @ * . % ",
"+   @ ,   % @ % @ @ % @ % |.1.2.3.% 4.5.+ . @ .   @ @ @ @ . % @ ",
"@ % ' ; + . % ; % ! @ % ; 6.7.8.; % 9.0.% ; ' + @ @ a.% ' ' @ = ",
"; b.@ @ # ; % % ; $ % % c.d.e.f.' ; @ % @ #   @ % ; % 3 @ @ { = ",
"% % % *   . * * @ @   * g.h.i.j.@ * @ . = # % &   * *   @ , . % ",
". % % @ * % ; @ ; % @ % @   = % % ; % @ @ @ @   , ; ; % % @ @   ",
"  @ % . + @ {   @ % @ @ @ . / + % . % . % * % @ / @   @ @ $ + . ",
"; + . @ % @ # # % . # @ % % # > @ # # % & * @ @ > @ . @ # # . { ",
"@ . ; . .   ] @ # + @ @ > @ % * @ , > # @ @ > . % . ; = % $ . . ",
"^ % %   . @ + % % % @ / @   - % ; + @ @ @ $ % { * ; % % @ % @ @ ",
"% # % @ + $ @ % . % . . ; @ + . % . @ %   . %   % $ % . @ % @ . ",
"% ; ; ' @ ; ' ' ; ' ' ' ' ; + ; ' ' ) ' + ' ) % ) ) ' ; ; ;   * ",
"+ % . . / @ # * @ . % . % @ ] # @ # # * { * # & > @ * @ * , @ { ",
". @ % @ = @ % @ % % @ % @ @ @ @ % . % # . % @ { # @ ; . % . * { ",
". %   @ { @ %   % @ @ @ % @ . % @ ; @ @   . % . . % @ % @ % @ @ ",
"% @ ; 3 ; $ @ % @ a.# % ; % @ $ % @ % ; % @ ; ; + . % @ % ; % , "};
